  0
SECTION
  2
HEADER
  9
$ACADVER
  1
AC1027
  9
$ACADMAINTVER
 70
   125
  9
$DWGCODEPAGE
  3
ANSI_1252
  9
$REQUIREDVERSIONS
160
                 0
  9
$INSBASE
 10
0.0
 20
0.0
 30
0.0
  9
$EXTMIN
 10
1.000000000000000E+20
 20
1.000000000000000E+20
 30
1.000000000000000E+20
  9
$EXTMAX
 10
-1.000000000000000E+20
 20
-1.000000000000000E+20
 30
-1.000000000000000E+20
  9
$LIMMIN
 10
0.0
 20
0.0
  9
$LIMMAX
 10
12.0
 20
9.0
  9
$ORTHOMODE
 70
     0
  9
$REGENMODE
 70
     1
  9
$FILLMODE
 70
     1
  9
$QTEXTMODE
 70
     0
  9
$MIRRTEXT
 70
     0
  9
$LTSCALE
 40
1.0
  9
$ATTMODE
 70
     1
  9
$TEXTSIZE
 40
0.2
  9
$TRACEWID
 40
0.05
  9
$TEXTSTYLE
  7
Standard
  9
$CLAYER
  8
0
  9
$CELTYPE
  6
ByLayer
  9
$CECOLOR
 62
   256
  9
$CELTSCALE
 40
1.0
  9
$DISPSILH
 70
     0
  9
$DIMSCALE
 40
1.0
  9
$DIMASZ
 40
0.18
  9
$DIMEXO
 40
0.0625
  9
$DIMDLI
 40
0.38
  9
$DIMRND
 40
0.0
  9
$DIMDLE
 40
0.0
  9
$DIMEXE
 40
0.18
  9
$DIMTP
 40
0.0
  9
$DIMTM
 40
0.0
  9
$DIMTXT
 40
0.18
  9
$DIMCEN
 40
0.09
  9
$DIMTSZ
 40
0.0
  9
$DIMTOL
 70
     0
  9
$DIMLIM
 70
     0
  9
$DIMTIH
 70
     1
  9
$DIMTOH
 70
     1
  9
$DIMSE1
 70
     0
  9
$DIMSE2
 70
     0
  9
$DIMTAD
 70
     0
  9
$DIMZIN
 70
     0
  9
$DIMBLK
  1

  9
$DIMASO
 70
     1
  9
$DIMSHO
 70
     1
  9
$DIMPOST
  1

  9
$DIMAPOST
  1

  9
$DIMALT
 70
     0
  9
$DIMALTD
 70
     2
  9
$DIMALTF
 40
25.4
  9
$DIMLFAC
 40
1.0
  9
$DIMTOFL
 70
     0
  9
$DIMTVP
 40
0.0
  9
$DIMTIX
 70
     0
  9
$DIMSOXD
 70
     0
  9
$DIMSAH
 70
     0
  9
$DIMBLK1
  1

  9
$DIMBLK2
  1

  9
$DIMSTYLE
  2
Standard
  9
$DIMCLRD
 70
     0
  9
$DIMCLRE
 70
     0
  9
$DIMCLRT
 70
     0
  9
$DIMTFAC
 40
1.0
  9
$DIMGAP
 40
0.09
  9
$DIMJUST
 70
     0
  9
$DIMSD1
 70
     0
  9
$DIMSD2
 70
     0
  9
$DIMTOLJ
 70
     1
  9
$DIMTZIN
 70
     0
  9
$DIMALTZ
 70
     0
  9
$DIMALTTZ
 70
     0
  9
$DIMUPT
 70
     0
  9
$DIMDEC
 70
     4
  9
$DIMTDEC
 70
     4
  9
$DIMALTU
 70
     2
  9
$DIMALTTD
 70
     2
  9
$DIMTXSTY
  7
Standard
  9
$DIMAUNIT
 70
     0
  9
$DIMADEC
 70
     0
  9
$DIMALTRND
 40
0.0
  9
$DIMAZIN
 70
     0
  9
$DIMDSEP
 70
    46
  9
$DIMATFIT
 70
     3
  9
$DIMFRAC
 70
     0
  9
$DIMLDRBLK
  1

  9
$DIMLUNIT
 70
     2
  9
$DIMLWD
 70
    -2
  9
$DIMLWE
 70
    -2
  9
$DIMTMOVE
 70
     0
  9
$DIMFXL
 40
1.0
  9
$DIMFXLON
 70
     0
  9
$DIMJOGANG
 40
0.7853981633974483
  9
$DIMTFILL
 70
     0
  9
$DIMTFILLCLR
 70
     0
  9
$DIMARCSYM
 70
     0
  9
$DIMLTYPE
  6

  9
$DIMLTEX1
  6

  9
$DIMLTEX2
  6

  9
$DIMTXTDIRECTION
 70
     0
  9
$LUNITS
 70
     2
  9
$LUPREC
 70
     4
  9
$SKETCHINC
 40
0.1
  9
$FILLETRAD
 40
0.0
  9
$AUNITS
 70
     0
  9
$AUPREC
 70
     0
  9
$MENU
  1
.
  9
$ELEVATION
 40
0.0
  9
$PELEVATION
 40
0.0
  9
$THICKNESS
 40
0.0
  9
$LIMCHECK
 70
     0
  9
$CHAMFERA
 40
0.0
  9
$CHAMFERB
 40
0.0
  9
$CHAMFERC
 40
0.0
  9
$CHAMFERD
 40
0.0
  9
$SKPOLY
 70
     0
  9
$TDCREATE
 40
2459817.158298611
  9
$TDUCREATE
 40
2459817.158298611
  9
$TDUPDATE
 40
2459817.158298611
  9
$TDUUPDATE
 40
2459817.158298611
  9
$TDINDWG
 40
0.0000000000
  9
$TDUSRTIMER
 40
0.0000000000
  9
$USRTIMER
 70
     1
  9
$ANGBASE
 50
0.0
  9
$ANGDIR
 70
     0
  9
$PDMODE
 70
     0
  9
$PDSIZE
 40
0.0
  9
$PLINEWID
 40
0.0
  9
$SPLFRAME
 70
     0
  9
$SPLINETYPE
 70
     6
  9
$SPLINESEGS
 70
     8
  9
$HANDSEED
  5
188
  9
$SURFTAB1
 70
     6
  9
$SURFTAB2
 70
     6
  9
$SURFTYPE
 70
     6
  9
$SURFU
 70
     6
  9
$SURFV
 70
     6
  9
$UCSBASE
  2

  9
$UCSNAME
  2

  9
$UCSORG
 10
0.0
 20
0.0
 30
0.0
  9
$UCSXDIR
 10
1.0
 20
0.0
 30
0.0
  9
$UCSYDIR
 10
0.0
 20
1.0
 30
0.0
  9
$UCSORTHOREF
  2

  9
$UCSORTHOVIEW
 70
     0
  9
$UCSORGTOP
 10
0.0
 20
0.0
 30
0.0
  9
$UCSORGBOTTOM
 10
0.0
 20
0.0
 30
0.0
  9
$UCSORGLEFT
 10
0.0
 20
0.0
 30
0.0
  9
$UCSORGRIGHT
 10
0.0
 20
0.0
 30
0.0
  9
$UCSORGFRONT
 10
0.0
 20
0.0
 30
0.0
  9
$UCSORGBACK
 10
0.0
 20
0.0
 30
0.0
  9
$PUCSBASE
  2

  9
$PUCSNAME
  2

  9
$PUCSORG
 10
0.0
 20
0.0
 30
0.0
  9
$PUCSXDIR
 10
1.0
 20
0.0
 30
0.0
  9
$PUCSYDIR
 10
0.0
 20
1.0
 30
0.0
  9
$PUCSORTHOREF
  2

  9
$PUCSORTHOVIEW
 70
     0
  9
$PUCSORGTOP
 10
0.0
 20
0.0
 30
0.0
  9
$PUCSORGBOTTOM
 10
0.0
 20
0.0
 30
0.0
  9
$PUCSORGLEFT
 10
0.0
 20
0.0
 30
0.0
  9
$PUCSORGRIGHT
 10
0.0
 20
0.0
 30
0.0
  9
$PUCSORGFRONT
 10
0.0
 20
0.0
 30
0.0
  9
$PUCSORGBACK
 10
0.0
 20
0.0
 30
0.0
  9
$USERI1
 70
     0
  9
$USERI2
 70
     0
  9
$USERI3
 70
     0
  9
$USERI4
 70
     0
  9
$USERI5
 70
     0
  9
$USERR1
 40
0.0
  9
$USERR2
 40
0.0
  9
$USERR3
 40
0.0
  9
$USERR4
 40
0.0
  9
$USERR5
 40
0.0
  9
$WORLDVIEW
 70
     1
  9
$SHADEDGE
 70
     3
  9
$SHADEDIF
 70
    70
  9
$TILEMODE
 70
     1
  9
$MAXACTVP
 70
    64
  9
$PINSBASE
 10
0.0
 20
0.0
 30
0.0
  9
$PLIMCHECK
 70
     0
  9
$PEXTMIN
 10
1.000000000000000E+20
 20
1.000000000000000E+20
 30
1.000000000000000E+20
  9
$PEXTMAX
 10
-1.000000000000000E+20
 20
-1.000000000000000E+20
 30
-1.000000000000000E+20
  9
$PLIMMIN
 10
0.0
 20
0.0
  9
$PLIMMAX
 10
12.0
 20
9.0
  9
$UNITMODE
 70
     0
  9
$VISRETAIN
 70
     1
  9
$PLINEGEN
 70
     0
  9
$PSLTSCALE
 70
     1
  9
$TREEDEPTH
 70
  3020
  9
$CMLSTYLE
  2
Standard
  9
$CMLJUST
 70
     0
  9
$CMLSCALE
 40
1.0
  9
$PROXYGRAPHICS
 70
     1
  9
$MEASUREMENT
 70
     0
  9
$CELWEIGHT
370
    -1
  9
$ENDCAPS
280
     0
  9
$JOINSTYLE
280
     0
  9
$LWDISPLAY
290
     0
  9
$INSUNITS
 70
     5
  9
$HYPERLINKBASE
  1

  9
$STYLESHEET
  1

  9
$XEDIT
290
     1
  9
$CEPSNTYPE
380
     0
  9
$PSTYLEMODE
290
     1
  9
$FINGERPRINTGUID
  2
{7D3E8187-B1CD-7E45-88C4-78CD787E467F}
  9
$VERSIONGUID
  2
{D97CEC09-C9EB-5B44-B235-36E0FC5EDA2E}
  9
$EXTNAMES
290
     1
  9
$PSVPSCALE
 40
0.0
  9
$OLESTARTUP
290
     0
  9
$SORTENTS
280
   127
  9
$INDEXCTL
280
     0
  9
$HIDETEXT
280
     1
  9
$XCLIPFRAME
280
     2
  9
$HALOGAP
280
     0
  9
$OBSCOLOR
 70
   257
  9
$OBSLTYPE
280
     0
  9
$INTERSECTIONDISPLAY
280
     0
  9
$INTERSECTIONCOLOR
 70
   257
  9
$DIMASSOC
280
     2
  9
$PROJECTNAME
  1

  9
$CAMERADISPLAY
290
     0
  9
$LENSLENGTH
 40
50.0
  9
$CAMERAHEIGHT
 40
0.0
  9
$STEPSPERSEC
 40
2.0
  9
$STEPSIZE
 40
6.0
  9
$3DDWFPREC
 40
2.0
  9
$PSOLWIDTH
 40
0.25
  9
$PSOLHEIGHT
 40
4.0
  9
$LOFTANG1
 40
1.570796326794896
  9
$LOFTANG2
 40
1.570796326794896
  9
$LOFTMAG1
 40
0.0
  9
$LOFTMAG2
 40
0.0
  9
$LOFTPARAM
 70
     7
  9
$LOFTNORMALS
280
     1
  9
$LATITUDE
 40
37.795
  9
$LONGITUDE
 40
-122.394
  9
$NORTHDIRECTION
 40
0.0
  9
$TIMEZONE
 70
 -8000
  9
$LIGHTGLYPHDISPLAY
280
     1
  9
$TILEMODELIGHTSYNCH
280
     1
  9
$CMATERIAL
347
11
  9
$SOLIDHIST
280
     0
  9
$SHOWHIST
280
     1
  9
$DWFFRAME
280
     2
  9
$DGNFRAME
280
     0
  9
$REALWORLDSCALE
290
     1
  9
$INTERFERECOLOR
 62
     1
  9
$INTERFEREOBJVS
345
33
  9
$INTERFEREVPVS
346
30
  9
$CSHADOW
280
     0
  9
$SHADOWPLANELOCATION
 40
0.0
  0
ENDSEC
  0
SECTION
  2
CLASSES
  0
CLASS
  1
ACDBDICTIONARYWDFLT
  2
AcDbDictionaryWithDefault
  3
ObjectDBX Classes
 90
        0
 91
        1
280
     0
281
     0
  0
CLASS
  1
MATERIAL
  2
AcDbMaterial
  3
ObjectDBX Classes
 90
     1153
 91
        3
280
     0
281
     0
  0
CLASS
  1
VISUALSTYLE
  2
AcDbVisualStyle
  3
ObjectDBX Classes
 90
     4095
 91
       24
280
     0
281
     0
  0
CLASS
  1
SCALE
  2
AcDbScale
  3
ObjectDBX Classes
 90
     1153
 91
       17
280
     0
281
     0
  0
CLASS
  1
TABLESTYLE
  2
AcDbTableStyle
  3
ObjectDBX Classes
 90
     4095
 91
        1
280
     0
281
     0
  0
CLASS
  1
MLEADERSTYLE
  2
AcDbMLeaderStyle
  3
ACDB_MLEADERSTYLE_CLASS
 90
     4095
 91
        1
280
     0
281
     0
  0
CLASS
  1
ACDBSECTIONVIEWSTYLE
  2
AcDbSectionViewStyle
  3
ObjectDBX Classes
 90
     1025
 91
        1
280
     0
281
     0
  0
CLASS
  1
ACDBDETAILVIEWSTYLE
  2
AcDbDetailViewStyle
  3
ObjectDBX Classes
 90
     1025
 91
        1
280
     0
281
     0
  0
CLASS
  1
DICTIONARYVAR
  2
AcDbDictionaryVar
  3
ObjectDBX Classes
 90
        0
 91
        5
280
     0
281
     0
  0
CLASS
  1
CELLSTYLEMAP
  2
AcDbCellStyleMap
  3
ObjectDBX Classes
 90
     1152
 91
        1
280
     0
281
     0
  0
ENDSEC
  0
SECTION
  2
TABLES
  0
TABLE
  2
VPORT
  5
8
330
0
100
AcDbSymbolTable
 70
     1
1001
ACAD
1000
DbSaveVer
1071
      267
  0
VPORT
  5
57
330
8
100
AcDbSymbolTableRecord
100
AcDbViewportTableRecord
  2
*Active
 70
     0
 10
0.0
 20
0.0
 11
1.0
 21
1.0
 12
500.0
 22
500.0
 13
0.0
 23
0.0
 14
1.0
 24
1.0
 15
0.0
 25
0.0
 16
0.0
 26
0.0
 36
1.0
 17
0.0
 27
0.0
 37
0.0
 40
12.0
 41
1.0
 42
50.0
 43
0.0
 44
0.0
 50
0.0
 51
0.0
 71
     0
 72
   100
 73
     1
 74
     1
 75
     0
 76
     0
 77
     0
 78
     0
281
     0
 65
     1
110
0.0
120
0.0
130
0.0
111
1.0
121
0.0
131
0.0
112
0.0
122
1.0
132
0.0
 79
     0
146
0.0
 60
     3
 61
     5
292
     1
282
     1
141
0.0
142
0.0
 63
   250
421
  3355443
  0
ENDTAB
  0
TABLE
  2
LTYPE
  5
5
330
0
100
AcDbSymbolTable
 70
     1
  0
LTYPE
  5
5B
330
5
100
AcDbSymbolTableRecord
100
AcDbLinetypeTableRecord
  2
ByBlock
 70
     0
  3

 72
    65
 73
     0
 40
0.0
  0
LTYPE
  5
5C
330
5
100
AcDbSymbolTableRecord
100
AcDbLinetypeTableRecord
  2
ByLayer
 70
     0
  3

 72
    65
 73
     0
 40
0.0
  0
LTYPE
  5
5D
330
5
100
AcDbSymbolTableRecord
100
AcDbLinetypeTableRecord
  2
Continuous
 70
     0
  3
Solid line
 72
    65
 73
     0
 40
0.0
  0
ENDTAB
  0
TABLE
  2
LAYER
  5
2
330
0
100
AcDbSymbolTable
 70
     2
  0
LAYER
  5
54
330
2
100
AcDbSymbolTableRecord
100
AcDbLayerTableRecord
  2
0
 70
     0
 62
     7
  6
Continuous
370
    -3
390
F
347
21
348
0
  0
LAYER
  5
7A
330
2
100
AcDbSymbolTableRecord
100
AcDbLayerTableRecord
  2
MD_USA_106mm_x_23.6mm_rev2M v1_0
 70
     0
 62
     7
  6
Continuous
370
    -3
390
F
347
21
348
0
1001
NFusion_SketchTransform
1000
1.000000;0.000000;0.000000;0.000000;0.000000;1.000000;0.000000;0.000000;0.000000;0.000000;1.000000;0.000000;0.000000;0.000000;0.000000;1.000000
  0
ENDTAB
  0
TABLE
  2
STYLE
  5
3
330
0
100
AcDbSymbolTable
 70
     2
  0
STYLE
  5
55
330
3
100
AcDbSymbolTableRecord
100
AcDbTextStyleTableRecord
  2
Standard
 70
     0
 40
0.0
 41
1.0
 50
0.0
 71
     0
 42
0.2
  3
txt
  4

  0
STYLE
  5
5A
330
3
100
AcDbSymbolTableRecord
100
AcDbTextStyleTableRecord
  2
Annotative
 70
     0
 40
0.0
 41
1.0
 50
0.0
 71
     0
 42
0.2
  3
txt
  4

1001
AcadAnnotative
1000
AnnotativeData
1002
{
1070
     1
1070
     1
1002
}
  0
ENDTAB
  0
TABLE
  2
VIEW
  5
6
330
0
100
AcDbSymbolTable
 70
     0
  0
ENDTAB
  0
TABLE
  2
UCS
  5
7
330
0
100
AcDbSymbolTable
 70
     0
  0
ENDTAB
  0
TABLE
  2
APPID
  5
9
330
0
100
AcDbSymbolTable
 70
     4
  0
APPID
  5
56
330
9
100
AcDbSymbolTableRecord
100
AcDbRegAppTableRecord
  2
ACAD
 70
     0
  0
APPID
  5
5E
330
9
100
AcDbSymbolTableRecord
100
AcDbRegAppTableRecord
  2
AcadAnnotative
 70
     0
  0
APPID
  5
78
330
9
100
AcDbSymbolTableRecord
100
AcDbRegAppTableRecord
  2
EDIT_IN_FUSION_ACAD_ADDIN
 70
     0
  0
APPID
  5
79
330
9
100
AcDbSymbolTableRecord
100
AcDbRegAppTableRecord
  2
NFusion_SketchTransform
 70
     0
  0
ENDTAB
  0
TABLE
  2
DIMSTYLE
  5
A
330
0
100
AcDbSymbolTable
 70
     2
100
AcDbDimStyleTable
 71
     0
  0
DIMSTYLE
105
58
330
A
100
AcDbSymbolTableRecord
100
AcDbDimStyleTableRecord
  2
Standard
 70
     0
340
55
  0
DIMSTYLE
105
59
330
A
100
AcDbSymbolTableRecord
100
AcDbDimStyleTableRecord
  2
Annotative
 70
     0
340
55
1001
AcadAnnotative
1000
AnnotativeData
1002
{
1070
     1
1070
     1
1002
}
  0
ENDTAB
  0
TABLE
  2
BLOCK_RECORD
  5
1
330
0
100
AcDbSymbolTable
 70
     1
  0
BLOCK_RECORD
  5
70
330
1
100
AcDbSymbolTableRecord
100
AcDbBlockTableRecord
  2
*Model_Space
340
73
 70
     0
280
     1
281
     0
  0
BLOCK_RECORD
  5
6C
330
1
100
AcDbSymbolTableRecord
100
AcDbBlockTableRecord
  2
*Paper_Space
340
6F
 70
     0
280
     1
281
     0
  0
BLOCK_RECORD
  5
74
330
1
100
AcDbSymbolTableRecord
100
AcDbBlockTableRecord
  2
*Paper_Space0
340
77
 70
     0
280
     1
281
     0
  0
ENDTAB
  0
ENDSEC
  0
SECTION
  2
BLOCKS
  0
BLOCK
  5
71
330
70
100
AcDbEntity
  8
0
100
AcDbBlockBegin
  2
*Model_Space
 70
     0
 10
0.0
 20
0.0
 30
0.0
  3
*Model_Space
  1

  0
ENDBLK
  5
72
330
70
100
AcDbEntity
  8
0
100
AcDbBlockEnd
  0
BLOCK
  5
6D
330
6C
100
AcDbEntity
 67
     1
  8
0
100
AcDbBlockBegin
  2
*Paper_Space
 70
     0
 10
0.0
 20
0.0
 30
0.0
  3
*Paper_Space
  1

  0
ENDBLK
  5
6E
330
6C
100
AcDbEntity
 67
     1
  8
0
100
AcDbBlockEnd
  0
BLOCK
  5
75
330
74
100
AcDbEntity
 67
     1
  8
0
100
AcDbBlockBegin
  2
*Paper_Space0
 70
     0
 10
0.0
 20
0.0
 30
0.0
  3
*Paper_Space0
  1

  0
ENDBLK
  5
76
330
74
100
AcDbEntity
 67
     1
  8
0
100
AcDbBlockEnd
  0
ENDSEC
  0
SECTION
  2
ENTITIES
  0
LINE
  5
7B
330
70
100
AcDbEntity
  8
MD_USA_106mm_x_23.6mm_rev2M v1_0
100
AcDbLine
 10
-3.781951489127443
 20
-1.090597849330775
 30
0.0
 11
-2.811950381302173
 21
-1.090597849330775
 31
0.0
  0
LINE
  5
7C
330
70
100
AcDbEntity
  8
MD_USA_106mm_x_23.6mm_rev2M v1_0
100
AcDbLine
 10
2.677517649454087
 20
-0.8036625583155673
 30
0.0
 11
2.598170724456715
 21
-0.7131847309784525
 31
0.0
  0
LINE
  5
7D
330
70
100
AcDbEntity
  8
MD_USA_106mm_x_23.6mm_rev2M v1_0
100
AcDbLine
 10
2.531312349684914
 20
-0.6131241020125261
 30
0.0
 11
2.478086490467672
 21
-0.5051927365214426
 31
0.0
  0
LINE
  5
7E
330
70
100
AcDbEntity
  8
MD_USA_106mm_x_23.6mm_rev2M v1_0
100
AcDbLine
 10
4.24018694531328
 20
-0.0330393426630433
 30
0.0
 11
4.248057681838437
 21
-0.1531235766520895
 31
0.0
  0
LINE
  5
7F
330
70
100
AcDbEntity
  8
MD_USA_106mm_x_23.6mm_rev2M v1_0
100
AcDbLine
 10
3.566170424558455
 20
0.735529198452281
 30
0.0
 11
3.680125790986914
 21
0.6968465639978039
 31
0.0
  0
LINE
  5
80
330
70
100
AcDbEntity
  8
MD_USA_106mm_x_23.6mm_rev2M v1_0
100
AcDbLine
 10
-4.368544741696645
 20
-1.316480011818018
 30
0.0
 11
-4.371952162959306
 21
-1.290598077748356
 31
0.0
  0
LINE
  5
81
330
70
100
AcDbEntity
  8
MD_USA_106mm_x_23.6mm_rev2M v1_0
100
AcDbLine
 10
2.415926316921849
 20
-0.0330393426630487
 30
0.0
 11
2.439403856013195
 21
0.0849902167888013
 31
0.0
  0
LINE
  5
82
330
70
100
AcDbEntity
  8
MD_USA_106mm_x_23.6mm_rev2M v1_0
100
AcDbLine
 10
3.888117785443925
 20
0.576762330008763
 30
0.0
 11
3.97859561278104
 21
0.4974154050113907
 31
0.0
  0
LINE
  5
83
330
70
100
AcDbEntity
  8
MD_USA_106mm_x_23.6mm_rev2M v1_0
100
AcDbLine
 10
6.224652521909828
 20
0.8952863232311809
 30
0.0
 11
6.228059943172491
 21
0.8694043891615187
 31
0.0
  0
LINE
  5
84
330
70
100
AcDbEntity
  8
MD_USA_106mm_x_23.6mm_rev2M v1_0
100
AcDbLine
 10
3.20797239712852
 20
0.7590067375436256
 30
0.0
 11
3.328056631117562
 21
0.766877474068783
 31
0.0
  0
LINE
  5
85
330
70
100
AcDbEntity
  8
MD_USA_106mm_x_23.6mm_rev2M v1_0
100
AcDbLine
 10
6.128059828963701
 20
0.9694045033703094
 30
0.0
 11
6.153941763033363
 21
0.9659970821076457
 31
0.0
  0
LINE
  5
86
330
70
100
AcDbEntity
  8
MD_USA_106mm_x_23.6mm_rev2M v1_0
100
AcDbLine
 10
6.228059943172491
 20
-1.290598077748356
 30
0.0
 11
6.224652521909828
 21
-1.316480011818018
 31
0.0
  0
LINE
  5
87
330
70
100
AcDbEntity
  8
MD_USA_106mm_x_23.6mm_rev2M v1_0
100
AcDbLine
 10
2.7679954767912
 20
0.5767623300087596
 30
0.0
 11
2.868056105757127
 21
0.6436207047805609
 31
0.0
  0
LINE
  5
88
330
70
100
AcDbEntity
  8
MD_USA_106mm_x_23.6mm_rev2M v1_0
100
AcDbLine
 10
4.124800912550215
 20
0.3068769487083502
 30
0.0
 11
4.178026771767456
 21
0.1989455832172666
 31
0.0
  0
LINE
  5
89
330
70
100
AcDbEntity
  8
MD_USA_106mm_x_23.6mm_rev2M v1_0
100
AcDbLine
 10
6.198770587840165
 20
-1.361308836624822
 30
0.0
 11
6.178059886068095
 21
-1.377200717034514
 31
0.0
  0
LINE
  5
8A
330
70
100
AcDbEntity
  8
MD_USA_106mm_x_23.6mm_rev2M v1_0
100
AcDbLine
 10
6.153941763033363
 20
0.9659970821076457
 30
0.0
 11
6.178059886068095
 21
0.9560070284476767
 31
0.0
  0
LINE
  5
8B
330
70
100
AcDbEntity
  8
MD_USA_106mm_x_23.6mm_rev2M v1_0
100
AcDbLine
 10
2.868056105757128
 20
-0.9498678580847407
 30
0.0
 11
2.767995476791202
 21
-0.8830094833129397
 31
0.0
  0
LINE
  5
8C
330
70
100
AcDbEntity
  8
MD_USA_106mm_x_23.6mm_rev2M v1_0
100
AcDbLine
 10
2.975987471248213
 20
-1.003093717301981
 30
0.0
 11
2.868056105757128
 21
-0.9498678580847407
 31
0.0
  0
LINE
  5
8D
330
70
100
AcDbEntity
  8
MD_USA_106mm_x_23.6mm_rev2M v1_0
100
AcDbLine
 10
6.224652521909828
 20
-1.316480011818018
 30
0.0
 11
6.214662468249859
 21
-1.340598134852752
 31
0.0
  0
LINE
  5
8E
330
70
100
AcDbEntity
  8
MD_USA_106mm_x_23.6mm_rev2M v1_0
100
AcDbLine
 10
3.97859561278104
 20
0.4974154050113907
 30
0.0
 11
4.057942537778414
 21
0.4069375776742764
 31
0.0
  0
LINE
  5
8F
330
70
100
AcDbEntity
  8
MD_USA_106mm_x_23.6mm_rev2M v1_0
100
AcDbLine
 10
-4.271952048750517
 20
-1.390598191957147
 30
0.0
 11
-4.297833982820177
 21
-1.387190770694483
 31
0.0
  0
LINE
  5
90
330
70
100
AcDbEntity
  8
MD_USA_106mm_x_23.6mm_rev2M v1_0
100
AcDbLine
 10
2.97598747124821
 20
0.6968465639978017
 30
0.0
 11
3.089942837676671
 21
0.7355291984522801
 31
0.0
  0
LINE
  5
91
330
70
100
AcDbEntity
  8
MD_USA_106mm_x_23.6mm_rev2M v1_0
100
AcDbLine
 10
3.089942837676671
 20
0.7355291984522801
 30
0.0
 11
3.20797239712852
 21
0.7590067375436256
 31
0.0
  0
LINE
  5
92
330
70
100
AcDbEntity
  8
MD_USA_106mm_x_23.6mm_rev2M v1_0
100
AcDbLine
 10
4.216709406221934
 20
0.0849902167888064
 30
0.0
 11
4.24018694531328
 21
-0.0330393426630433
 31
0.0
  0
LINE
  5
93
330
70
100
AcDbEntity
  8
MD_USA_106mm_x_23.6mm_rev2M v1_0
100
AcDbLine
 10
2.677517649454086
 20
0.4974154050113869
 30
0.0
 11
2.7679954767912
 21
0.5767623300087596
 31
0.0
  0
LINE
  5
94
330
70
100
AcDbEntity
  8
MD_USA_106mm_x_23.6mm_rev2M v1_0
100
AcDbLine
 10
3.788057156477999
 20
0.6436207047805631
 30
0.0
 11
3.888117785443925
 21
0.576762330008763
 31
0.0
  0
LINE
  5
95
330
70
100
AcDbEntity
  8
MD_USA_106mm_x_23.6mm_rev2M v1_0
100
AcDbLine
 10
3.680125790986914
 20
0.6968465639978039
 30
0.0
 11
3.788057156477999
 21
0.6436207047805631
 31
0.0
  0
LINE
  5
96
330
70
100
AcDbEntity
  8
MD_USA_106mm_x_23.6mm_rev2M v1_0
100
AcDbLine
 10
6.178059886068095
 20
-1.377200717034514
 30
0.0
 11
6.153941763033363
 21
-1.387190770694483
 31
0.0
  0
LINE
  5
97
330
70
100
AcDbEntity
  8
MD_USA_106mm_x_23.6mm_rev2M v1_0
100
AcDbLine
 10
4.178026771767456
 20
0.1989455832172666
 30
0.0
 11
4.216709406221934
 21
0.0849902167888064
 31
0.0
  0
LINE
  5
98
330
70
100
AcDbEntity
  8
MD_USA_106mm_x_23.6mm_rev2M v1_0
100
AcDbLine
 10
6.228059943172491
 20
-1.290598077748356
 30
0.0
 11
6.228059943172491
 21
0.8694043891615191
 31
0.0
  0
LINE
  5
99
330
70
100
AcDbEntity
  8
MD_USA_106mm_x_23.6mm_rev2M v1_0
100
AcDbLine
 10
2.598170724456715
 20
-0.7131847309784525
 30
0.0
 11
2.531312349684914
 21
-0.6131241020125261
 31
0.0
  0
LINE
  5
9A
330
70
100
AcDbEntity
  8
MD_USA_106mm_x_23.6mm_rev2M v1_0
100
AcDbLine
 10
2.415926316921851
 20
-0.2732078106411322
 30
0.0
 11
2.408055580396692
 21
-0.1531235766520906
 31
0.0
  0
LINE
  5
9B
330
70
100
AcDbEntity
  8
MD_USA_106mm_x_23.6mm_rev2M v1_0
100
AcDbLine
 10
6.153941763033363
 20
-1.387190770694483
 30
0.0
 11
6.128059828963701
 21
-1.390598191957147
 31
0.0
  0
LINE
  5
9C
330
70
100
AcDbEntity
  8
MD_USA_106mm_x_23.6mm_rev2M v1_0
100
AcDbLine
 10
-4.321952105854911
 20
-1.377200717034514
 30
0.0
 11
-4.342662807626981
 21
-1.361308836624822
 31
0.0
  0
LINE
  5
9D
330
70
100
AcDbEntity
  8
MD_USA_106mm_x_23.6mm_rev2M v1_0
100
AcDbLine
 10
6.214662468249859
 20
-1.340598134852752
 30
0.0
 11
6.198770587840165
 21
-1.361308836624822
 31
0.0
  0
LINE
  5
9E
330
70
100
AcDbEntity
  8
MD_USA_106mm_x_23.6mm_rev2M v1_0
100
AcDbLine
 10
3.448140865106604
 20
0.7590067375436261
 30
0.0
 11
3.566170424558455
 21
0.735529198452281
 31
0.0
  0
LINE
  5
9F
330
70
100
AcDbEntity
  8
MD_USA_106mm_x_23.6mm_rev2M v1_0
100
AcDbLine
 10
3.328056631117562
 20
0.766877474068783
 30
0.0
 11
3.448140865106604
 21
0.7590067375436261
 31
0.0
  0
LINE
  5
A0
330
70
100
AcDbEntity
  8
MD_USA_106mm_x_23.6mm_rev2M v1_0
100
AcDbLine
 10
4.057942537778414
 20
0.4069375776742764
 30
0.0
 11
4.124800912550215
 21
0.3068769487083502
 31
0.0
  0
LINE
  5
A1
330
70
100
AcDbEntity
  8
MD_USA_106mm_x_23.6mm_rev2M v1_0
100
AcDbLine
 10
6.198770587840165
 20
0.9401151480379844
 30
0.0
 11
6.214662468249859
 21
0.9194044462659141
 31
0.0
  0
LINE
  5
A2
330
70
100
AcDbEntity
  8
MD_USA_106mm_x_23.6mm_rev2M v1_0
100
AcDbLine
 10
2.598170724456714
 20
0.4069375776742721
 30
0.0
 11
2.677517649454086
 21
0.4974154050113869
 31
0.0
  0
LINE
  5
A3
330
70
100
AcDbEntity
  8
MD_USA_106mm_x_23.6mm_rev2M v1_0
100
AcDbLine
 10
6.178059886068095
 20
0.9560070284476767
 30
0.0
 11
6.198770587840165
 21
0.9401151480379844
 31
0.0
  0
LINE
  5
A4
330
70
100
AcDbEntity
  8
MD_USA_106mm_x_23.6mm_rev2M v1_0
100
AcDbLine
 10
2.439403856013195
 20
0.0849902167888013
 30
0.0
 11
2.478086490467672
 21
0.1989455832172617
 31
0.0
  0
LINE
  5
A5
330
70
100
AcDbEntity
  8
MD_USA_106mm_x_23.6mm_rev2M v1_0
100
AcDbLine
 10
-4.358554688036674
 20
-1.340598134852752
 30
0.0
 11
-4.368544741696645
 21
-1.316480011818018
 31
0.0
  0
LINE
  5
A6
330
70
100
AcDbEntity
  8
MD_USA_106mm_x_23.6mm_rev2M v1_0
100
AcDbLine
 10
2.531312349684912
 20
0.3068769487083454
 30
0.0
 11
2.598170724456714
 21
0.4069375776742721
 31
0.0
  0
LINE
  5
A7
330
70
100
AcDbEntity
  8
MD_USA_106mm_x_23.6mm_rev2M v1_0
100
AcDbLine
 10
4.24018694531328
 20
-0.2732078106411315
 30
0.0
 11
4.216709406221935
 21
-0.3912373700929814
 31
0.0
  0
LINE
  5
A8
330
70
100
AcDbEntity
  8
MD_USA_106mm_x_23.6mm_rev2M v1_0
100
AcDbLine
 10
3.089942837676673
 20
-1.041776351756459
 30
0.0
 11
2.975987471248213
 21
-1.003093717301981
 31
0.0
  0
LINE
  5
A9
330
70
100
AcDbEntity
  8
MD_USA_106mm_x_23.6mm_rev2M v1_0
100
AcDbLine
 10
3.680125790986918
 20
-1.003093717301981
 30
0.0
 11
3.566170424558457
 21
-1.041776351756459
 31
0.0
  0
LINE
  5
AA
330
70
100
AcDbEntity
  8
MD_USA_106mm_x_23.6mm_rev2M v1_0
100
AcDbLine
 10
6.071563021223903
 20
-0.4086514017005491
 30
0.0
 11
6.107608405883484
 21
-0.4625971320995701
 31
0.0
  0
LINE
  5
AB
330
70
100
AcDbEntity
  8
MD_USA_106mm_x_23.6mm_rev2M v1_0
100
AcDbLine
 10
5.430059031786342
 20
-1.140146506196714
 30
0.0
 11
5.37611330138732
 21
-1.104101121537135
 31
0.0
  0
LINE
  5
AC
330
70
100
AcDbEntity
  8
MD_USA_106mm_x_23.6mm_rev2M v1_0
100
AcDbLine
 10
5.37611330138732
 20
-1.104101121537135
 30
0.0
 11
5.327333950996875
 21
-1.061322779364638
 31
0.0
  0
LINE
  5
AD
330
70
100
AcDbEntity
  8
MD_USA_106mm_x_23.6mm_rev2M v1_0
100
AcDbLine
 10
6.107608405883484
 20
-0.4625971320995701
 30
0.0
 11
6.136304086504952
 21
-0.5207862161034589
 31
0.0
  0
LINE
  5
AE
330
70
100
AcDbEntity
  8
MD_USA_106mm_x_23.6mm_rev2M v1_0
100
AcDbLine
 10
3.978595612781044
 20
-0.8036625583155672
 30
0.0
 11
3.888117785443927
 21
-0.8830094833129397
 31
0.0
  0
LINE
  5
AF
330
70
100
AcDbEntity
  8
MD_USA_106mm_x_23.6mm_rev2M v1_0
100
AcDbLine
 10
5.198959558011352
 20
-0.838971808322897
 30
0.0
 11
5.186302102153408
 21
-0.7753384806184215
 31
0.0
  0
LINE
  5
B0
330
70
100
AcDbEntity
  8
MD_USA_106mm_x_23.6mm_rev2M v1_0
100
AcDbLine
 10
3.207972397128522
 20
-1.065253890847804
 30
0.0
 11
3.089942837676673
 21
-1.041776351756459
 31
0.0
  0
LINE
  5
B1
330
70
100
AcDbEntity
  8
MD_USA_106mm_x_23.6mm_rev2M v1_0
100
AcDbLine
 10
5.806433708009666
 20
-1.189697172350163
 30
0.0
 11
5.74280038030519
 21
-1.202354628208106
 31
0.0
  0
LINE
  5
B2
330
70
100
AcDbEntity
  8
MD_USA_106mm_x_23.6mm_rev2M v1_0
100
AcDbLine
 10
5.186302102153408
 20
-0.7753384806184215
 30
0.0
 11
5.182058748548541
 21
-0.710597415337373
 31
0.0
  0
LINE
  5
B3
330
70
100
AcDbEntity
  8
MD_USA_106mm_x_23.6mm_rev2M v1_0
100
AcDbLine
 10
-4.342662807626981
 20
-1.361308836624822
 30
0.0
 11
-4.358554688036674
 21
-1.340598134852752
 31
0.0
  0
LINE
  5
B4
330
70
100
AcDbEntity
  8
MD_USA_106mm_x_23.6mm_rev2M v1_0
100
AcDbLine
 10
3.448140865106606
 20
-1.065253890847804
 30
0.0
 11
3.328056631117565
 21
-1.073124627372961
 31
0.0
  0
LINE
  5
B5
330
70
100
AcDbEntity
  8
MD_USA_106mm_x_23.6mm_rev2M v1_0
100
AcDbLine
 10
6.214662468249859
 20
0.9194044462659141
 30
0.0
 11
6.224652521909828
 21
0.8952863232311809
 31
0.0
  0
LINE
  5
B6
330
70
100
AcDbEntity
  8
MD_USA_106mm_x_23.6mm_rev2M v1_0
100
AcDbLine
 10
5.742800380305189
 20
-0.2188402024666385
 30
0.0
 11
5.806433708009664
 21
-0.2314976583245811
 31
0.0
  0
LINE
  5
B7
330
70
100
AcDbEntity
  8
MD_USA_106mm_x_23.6mm_rev2M v1_0
100
AcDbLine
 10
5.327333950996875
 20
-0.359872051310107
 30
0.0
 11
5.37611330138732
 21
-0.3170937091376105
 31
0.0
  0
LINE
  5
B8
330
70
100
AcDbEntity
  8
MD_USA_106mm_x_23.6mm_rev2M v1_0
100
AcDbLine
 10
6.128059828963701
 20
0.9694045033703094
 30
0.0
 11
-4.271952048750517
 21
0.9694045033703094
 31
0.0
  0
LINE
  5
B9
330
70
100
AcDbEntity
  8
MD_USA_106mm_x_23.6mm_rev2M v1_0
100
AcDbLine
 10
5.74280038030519
 20
-1.202354628208106
 30
0.0
 11
5.678059315024141
 21
-1.206597981812973
 31
0.0
  0
LINE
  5
BA
330
70
100
AcDbEntity
  8
MD_USA_106mm_x_23.6mm_rev2M v1_0
100
AcDbLine
 10
5.806433708009664
 20
-0.2314976583245811
 30
0.0
 11
5.867870514258052
 21
-0.25235264385656
 31
0.0
  0
LINE
  5
BB
330
70
100
AcDbEntity
  8
MD_USA_106mm_x_23.6mm_rev2M v1_0
100
AcDbLine
 10
4.057942537778415
 20
-0.7131847309784522
 30
0.0
 11
3.978595612781044
 21
-0.8036625583155672
 31
0.0
  0
LINE
  5
BC
330
70
100
AcDbEntity
  8
MD_USA_106mm_x_23.6mm_rev2M v1_0
100
AcDbLine
 10
5.549684922038617
 20
-1.189697172350163
 30
0.0
 11
5.48824811579023
 21
-1.168842186818183
 31
0.0
  0
LINE
  5
BD
330
70
100
AcDbEntity
  8
MD_USA_106mm_x_23.6mm_rev2M v1_0
100
AcDbLine
 10
5.613318249743094
 20
-0.2188402024666389
 30
0.0
 11
5.678059315024141
 21
-0.2145968488617713
 31
0.0
  0
LINE
  5
BE
330
70
100
AcDbEntity
  8
MD_USA_106mm_x_23.6mm_rev2M v1_0
100
AcDbLine
 10
6.028784679051407
 20
-1.061322779364638
 30
0.0
 11
5.980005328660964
 21
-1.104101121537135
 31
0.0
  0
LINE
  5
BF
330
70
100
AcDbEntity
  8
MD_USA_106mm_x_23.6mm_rev2M v1_0
100
AcDbLine
 10
5.926059598261943
 20
-1.140146506196714
 30
0.0
 11
5.867870514258054
 21
-1.168842186818183
 31
0.0
  0
LINE
  5
C0
330
70
100
AcDbEntity
  8
MD_USA_106mm_x_23.6mm_rev2M v1_0
100
AcDbLine
 10
4.124800912550217
 20
-0.6131241020125257
 30
0.0
 11
4.057942537778415
 21
-0.7131847309784522
 31
0.0
  0
LINE
  5
C1
330
70
100
AcDbEntity
  8
MD_USA_106mm_x_23.6mm_rev2M v1_0
100
AcDbLine
 10
5.549684922038616
 20
-0.2314976583245816
 30
0.0
 11
5.613318249743094
 21
-0.2188402024666389
 31
0.0
  0
LINE
  5
C2
330
70
100
AcDbEntity
  8
MD_USA_106mm_x_23.6mm_rev2M v1_0
100
AcDbLine
 10
2.478086490467672
 20
0.1989455832172617
 30
0.0
 11
2.531312349684912
 21
0.3068769487083454
 31
0.0
  0
LINE
  5
C3
330
70
100
AcDbEntity
  8
MD_USA_106mm_x_23.6mm_rev2M v1_0
100
AcDbLine
 10
5.327333950996875
 20
-1.061322779364638
 30
0.0
 11
5.284555608824379
 21
-1.012543428974194
 31
0.0
  0
LINE
  5
C4
330
70
100
AcDbEntity
  8
MD_USA_106mm_x_23.6mm_rev2M v1_0
100
AcDbLine
 10
6.157159072036932
 20
-0.5822230223518466
 30
0.0
 11
6.169816527894876
 21
-0.6458563500563216
 31
0.0
  0
LINE
  5
C5
330
70
100
AcDbEntity
  8
MD_USA_106mm_x_23.6mm_rev2M v1_0
100
AcDbLine
 10
3.328056631117565
 20
-1.073124627372961
 30
0.0
 11
3.207972397128522
 21
-1.065253890847804
 31
0.0
  0
LINE
  5
C6
330
70
100
AcDbEntity
  8
MD_USA_106mm_x_23.6mm_rev2M v1_0
100
AcDbLine
 10
5.926059598261941
 20
-0.2810483244780291
 30
0.0
 11
5.980005328660961
 21
-0.3170937091376087
 31
0.0
  0
LINE
  5
C7
330
70
100
AcDbEntity
  8
MD_USA_106mm_x_23.6mm_rev2M v1_0
100
AcDbLine
 10
4.216709406221935
 20
-0.3912373700929814
 30
0.0
 11
4.178026771767457
 21
-0.5051927365214421
 31
0.0
  0
LINE
  5
C8
330
70
100
AcDbEntity
  8
MD_USA_106mm_x_23.6mm_rev2M v1_0
100
AcDbLine
 10
6.071563021223904
 20
-1.012543428974193
 30
0.0
 11
6.028784679051407
 21
-1.061322779364638
 31
0.0
  0
LINE
  5
C9
330
70
100
AcDbEntity
  8
MD_USA_106mm_x_23.6mm_rev2M v1_0
100
AcDbLine
 10
6.169816527894876
 20
-0.7753384806184213
 30
0.0
 11
6.157159072036932
 21
-0.8389718083228963
 31
0.0
  0
LINE
  5
CA
330
70
100
AcDbEntity
  8
MD_USA_106mm_x_23.6mm_rev2M v1_0
100
AcDbLine
 10
6.107608405883484
 20
-0.9585976985751726
 30
0.0
 11
6.071563021223904
 21
-1.012543428974193
 31
0.0
  0
LINE
  5
CB
330
70
100
AcDbEntity
  8
MD_USA_106mm_x_23.6mm_rev2M v1_0
100
AcDbLine
 10
4.248057681838437
 20
-0.1531235766520895
 30
0.0
 11
4.24018694531328
 21
-0.2732078106411315
 31
0.0
  0
LINE
  5
CC
330
70
100
AcDbEntity
  8
MD_USA_106mm_x_23.6mm_rev2M v1_0
100
AcDbLine
 10
5.198959558011352
 20
-0.5822230223518491
 30
0.0
 11
5.21981454354333
 21
-0.5207862161034614
 31
0.0
  0
LINE
  5
CD
330
70
100
AcDbEntity
  8
MD_USA_106mm_x_23.6mm_rev2M v1_0
100
AcDbLine
 10
5.284555608824379
 20
-1.012543428974194
 30
0.0
 11
5.2485102241648
 21
-0.9585976985751726
 31
0.0
  0
LINE
  5
CE
330
70
100
AcDbEntity
  8
MD_USA_106mm_x_23.6mm_rev2M v1_0
100
AcDbLine
 10
5.37611330138732
 20
-0.3170937091376105
 30
0.0
 11
5.430059031786341
 21
-0.2810483244780304
 31
0.0
  0
LINE
  5
CF
330
70
100
AcDbEntity
  8
MD_USA_106mm_x_23.6mm_rev2M v1_0
100
AcDbLine
 10
5.2485102241648
 20
-0.9585976985751726
 30
0.0
 11
5.21981454354333
 21
-0.9004086145712841
 31
0.0
  0
LINE
  5
D0
330
70
100
AcDbEntity
  8
MD_USA_106mm_x_23.6mm_rev2M v1_0
100
AcDbLine
 10
5.48824811579023
 20
-0.2523526438565611
 30
0.0
 11
5.549684922038616
 21
-0.2314976583245816
 31
0.0
  0
LINE
  5
D1
330
70
100
AcDbEntity
  8
MD_USA_106mm_x_23.6mm_rev2M v1_0
100
AcDbLine
 10
2.767995476791202
 20
-0.8830094833129397
 30
0.0
 11
2.677517649454087
 21
-0.8036625583155673
 31
0.0
  0
LINE
  5
D2
330
70
100
AcDbEntity
  8
MD_USA_106mm_x_23.6mm_rev2M v1_0
100
AcDbLine
 10
5.2485102241648
 20
-0.4625971320995728
 30
0.0
 11
5.284555608824379
 21
-0.4086514017005513
 31
0.0
  0
LINE
  5
D3
330
70
100
AcDbEntity
  8
MD_USA_106mm_x_23.6mm_rev2M v1_0
100
AcDbLine
 10
1.207233639186376
 20
0.2109146824600319
 30
0.0
 11
1.278054289837355
 21
0.2250017857403861
 31
0.0
  0
LINE
  5
D4
330
70
100
AcDbEntity
  8
MD_USA_106mm_x_23.6mm_rev2M v1_0
100
AcDbLine
 10
2.439403856013195
 20
-0.3912373700929821
 30
0.0
 11
2.415926316921851
 21
-0.2732078106411322
 31
0.0
  0
LINE
  5
D5
330
70
100
AcDbEntity
  8
MD_USA_106mm_x_23.6mm_rev2M v1_0
100
AcDbLine
 10
5.980005328660961
 20
-0.3170937091376087
 30
0.0
 11
6.028784679051406
 21
-0.359872051310105
 31
0.0
  0
LINE
  5
D6
330
70
100
AcDbEntity
  8
MD_USA_106mm_x_23.6mm_rev2M v1_0
100
AcDbLine
 10
5.186302102153408
 20
-0.6458563500563245
 30
0.0
 11
5.198959558011352
 21
-0.5822230223518491
 31
0.0
  0
LINE
  5
D7
330
70
100
AcDbEntity
  8
MD_USA_106mm_x_23.6mm_rev2M v1_0
100
AcDbLine
 10
5.678059315024141
 20
-1.206597981812973
 30
0.0
 11
5.613318249743094
 21
-1.202354628208106
 31
0.0
  0
LINE
  5
D8
330
70
100
AcDbEntity
  8
MD_USA_106mm_x_23.6mm_rev2M v1_0
100
AcDbLine
 10
6.028784679051406
 20
-0.359872051310105
 30
0.0
 11
6.071563021223903
 21
-0.4086514017005491
 31
0.0
  0
LINE
  5
D9
330
70
100
AcDbEntity
  8
MD_USA_106mm_x_23.6mm_rev2M v1_0
100
AcDbLine
 10
6.136304086504952
 20
-0.5207862161034589
 30
0.0
 11
6.157159072036932
 21
-0.5822230223518466
 31
0.0
  0
LINE
  5
DA
330
70
100
AcDbEntity
  8
MD_USA_106mm_x_23.6mm_rev2M v1_0
100
AcDbLine
 10
5.48824811579023
 20
-1.168842186818183
 30
0.0
 11
5.430059031786342
 21
-1.140146506196714
 31
0.0
  0
LINE
  5
DB
330
70
100
AcDbEntity
  8
MD_USA_106mm_x_23.6mm_rev2M v1_0
100
AcDbLine
 10
2.868056105757127
 20
0.6436207047805609
 30
0.0
 11
2.97598747124821
 21
0.6968465639978017
 31
0.0
  0
LINE
  5
DC
330
70
100
AcDbEntity
  8
MD_USA_106mm_x_23.6mm_rev2M v1_0
100
AcDbLine
 10
3.566170424558457
 20
-1.041776351756459
 30
0.0
 11
3.448140865106606
 21
-1.065253890847804
 31
0.0
  0
LINE
  5
DD
330
70
100
AcDbEntity
  8
MD_USA_106mm_x_23.6mm_rev2M v1_0
100
AcDbLine
 10
5.21981454354333
 20
-0.9004086145712841
 30
0.0
 11
5.198959558011352
 21
-0.838971808322897
 31
0.0
  0
LINE
  5
DE
330
70
100
AcDbEntity
  8
MD_USA_106mm_x_23.6mm_rev2M v1_0
100
AcDbLine
 10
4.178026771767457
 20
-0.5051927365214421
 30
0.0
 11
4.124800912550217
 21
-0.6131241020125257
 31
0.0
  0
LINE
  5
DF
330
70
100
AcDbEntity
  8
MD_USA_106mm_x_23.6mm_rev2M v1_0
100
AcDbLine
 10
-4.297833982820177
 20
-1.387190770694483
 30
0.0
 11
-4.321952105854911
 21
-1.377200717034514
 31
0.0
  0
LINE
  5
E0
330
70
100
AcDbEntity
  8
MD_USA_106mm_x_23.6mm_rev2M v1_0
100
AcDbLine
 10
2.408055580396692
 20
-0.1531235766520906
 30
0.0
 11
2.415926316921849
 21
-0.0330393426630487
 31
0.0
  0
LINE
  5
E1
330
70
100
AcDbEntity
  8
MD_USA_106mm_x_23.6mm_rev2M v1_0
100
AcDbLine
 10
5.678059315024141
 20
-0.2145968488617713
 30
0.0
 11
5.742800380305189
 21
-0.2188402024666385
 31
0.0
  0
LINE
  5
E2
330
70
100
AcDbEntity
  8
MD_USA_106mm_x_23.6mm_rev2M v1_0
100
AcDbLine
 10
2.478086490467672
 20
-0.5051927365214426
 30
0.0
 11
2.439403856013195
 21
-0.3912373700929821
 31
0.0
  0
LINE
  5
E3
330
70
100
AcDbEntity
  8
MD_USA_106mm_x_23.6mm_rev2M v1_0
100
AcDbLine
 10
5.182058748548541
 20
-0.710597415337373
 30
0.0
 11
5.186302102153408
 21
-0.6458563500563245
 31
0.0
  0
LINE
  5
E4
330
70
100
AcDbEntity
  8
MD_USA_106mm_x_23.6mm_rev2M v1_0
100
AcDbLine
 10
5.21981454354333
 20
-0.5207862161034614
 30
0.0
 11
5.2485102241648
 21
-0.4625971320995728
 31
0.0
  0
LINE
  5
E5
330
70
100
AcDbEntity
  8
MD_USA_106mm_x_23.6mm_rev2M v1_0
100
AcDbLine
 10
3.788057156478002
 20
-0.9498678580847407
 30
0.0
 11
3.680125790986918
 21
-1.003093717301981
 31
0.0
  0
LINE
  5
E6
330
70
100
AcDbEntity
  8
MD_USA_106mm_x_23.6mm_rev2M v1_0
100
AcDbLine
 10
5.867870514258054
 20
-1.168842186818183
 30
0.0
 11
5.806433708009666
 21
-1.189697172350163
 31
0.0
  0
LINE
  5
E7
330
70
100
AcDbEntity
  8
MD_USA_106mm_x_23.6mm_rev2M v1_0
100
AcDbLine
 10
0.8544406014416257
 20
-0.8283800930011462
 30
0.0
 11
0.8064769847575083
 21
-0.7565974678734166
 31
0.0
  0
LINE
  5
E8
330
70
100
AcDbEntity
  8
MD_USA_106mm_x_23.6mm_rev2M v1_0
100
AcDbLine
 10
-2.811950381302175
 20
0.1294035440164687
 30
0.0
 11
-3.781951489127443
 21
0.1294035440164687
 31
0.0
  0
LINE
  5
E9
330
70
100
AcDbEntity
  8
MD_USA_106mm_x_23.6mm_rev2M v1_0
100
AcDbLine
 10
0.9450412076153584
 20
-0.676597376506384
 30
0.0
 11
0.9813772808609027
 21
-0.7309781531183007
 31
0.0
  0
LINE
  5
EA
330
70
100
AcDbEntity
  8
MD_USA_106mm_x_23.6mm_rev2M v1_0
100
AcDbLine
 10
6.157159072036932
 20
-0.8389718083228963
 30
0.0
 11
6.136304086504952
 21
-0.9004086145712838
 31
0.0
  0
LINE
  5
EB
330
70
100
AcDbEntity
  8
MD_USA_106mm_x_23.6mm_rev2M v1_0
100
AcDbLine
 10
0.9161141102146848
 20
-0.6179390256960124
 30
0.0
 11
0.9450412076153584
 21
-0.676597376506384
 31
0.0
  0
LINE
  5
EC
330
70
100
AcDbEntity
  8
MD_USA_106mm_x_23.6mm_rev2M v1_0
100
AcDbLine
 10
-2.811950381302173
 20
-0.9405976780175897
 30
0.0
 11
-3.641951329235137
 21
-0.9405976780175897
 31
0.0
  0
LINE
  5
ED
330
70
100
AcDbEntity
  8
MD_USA_106mm_x_23.6mm_rev2M v1_0
100
AcDbLine
 10
1.128054118524172
 20
0.0064161054463812
 30
0.0
 11
1.073673341912256
 21
-0.0299199677991633
 31
0.0
  0
LINE
  5
EE
330
70
100
AcDbEntity
  8
MD_USA_106mm_x_23.6mm_rev2M v1_0
100
AcDbLine
 10
-1.781949204951632
 20
-0.0205734272702203
 30
0.0
 11
-1.781949204951632
 21
-0.9405976780175897
 31
0.0
  0
LINE
  5
EF
330
70
100
AcDbEntity
  8
MD_USA_106mm_x_23.6mm_rev2M v1_0
100
AcDbLine
 10
6.174059881499743
 20
-0.7105974153373725
 30
0.0
 11
6.169816527894876
 21
-0.7753384806184213
 31
0.0
  0
LINE
  5
F0
330
70
100
AcDbEntity
  8
MD_USA_106mm_x_23.6mm_rev2M v1_0
100
AcDbLine
 10
-1.781949204951632
 20
-0.0205734272702203
 30
0.0
 11
-2.611950152884594
 21
-0.0205734272702203
 31
0.0
  0
LINE
  5
F1
330
70
100
AcDbEntity
  8
MD_USA_106mm_x_23.6mm_rev2M v1_0
100
AcDbLine
 10
0.7237000482100929
 20
-0.3404497057314006
 30
0.0
 11
0.7405426306017091
 21
-0.2557763261246386
 31
0.0
  0
LINE
  5
F2
330
70
100
AcDbEntity
  8
MD_USA_106mm_x_23.6mm_rev2M v1_0
100
AcDbLine
 10
5.980005328660964
 20
-1.104101121537135
 30
0.0
 11
5.926059598261943
 21
-1.140146506196714
 31
0.0
  0
LINE
  5
F3
330
70
100
AcDbEntity
  8
MD_USA_106mm_x_23.6mm_rev2M v1_0
100
AcDbLine
 10
1.024500609663824
 20
-0.0730432966020829
 30
0.0
 11
0.9813772808609035
 21
-0.1222160288505152
 31
0.0
  0
LINE
  5
F4
330
70
100
AcDbEntity
  8
MD_USA_106mm_x_23.6mm_rev2M v1_0
100
AcDbLine
 10
1.278054289837355
 20
0.0622162981815244
 30
0.0
 11
1.248644733697838
 21
0.0563663737462281
 31
0.0
  0
LINE
  5
F5
330
70
100
AcDbEntity
  8
MD_USA_106mm_x_23.6mm_rev2M v1_0
100
AcDbLine
 10
0.8544406014416248
 20
-0.0248140889676709
 30
0.0
 11
0.9113633954614783
 21
0.0400939176002595
 31
0.0
  0
LINE
  5
F6
330
70
100
AcDbEntity
  8
MD_USA_106mm_x_23.6mm_rev2M v1_0
100
AcDbLine
 10
1.186712469334542
 20
-0.8885373848158714
 30
0.0
 11
1.248644733697837
 21
-0.9095605557150442
 31
0.0
  0
LINE
  5
F7
330
70
100
AcDbEntity
  8
MD_USA_106mm_x_23.6mm_rev2M v1_0
100
AcDbLine
 10
1.811067600476937
 20
-0.1765968054624318
 30
0.0
 11
1.774731527231392
 21
-0.1222160288505152
 31
0.0
  0
LINE
  5
F8
330
70
100
AcDbEntity
  8
MD_USA_106mm_x_23.6mm_rev2M v1_0
100
AcDbLine
 10
0.9161141102146848
 20
-0.2352551562728031
 30
0.0
 11
0.895090939315513
 21
-0.2971874206360969
 31
0.0
  0
LINE
  5
F9
330
70
100
AcDbEntity
  8
MD_USA_106mm_x_23.6mm_rev2M v1_0
100
AcDbLine
 10
1.048054027157138
 20
0.1449803283042335
 30
0.0
 11
1.125483050226828
 21
0.1831640968731239
 31
0.0
  0
LINE
  5
FA
330
70
100
AcDbEntity
  8
MD_USA_106mm_x_23.6mm_rev2M v1_0
100
AcDbLine
 10
0.9450412076153602
 20
-0.1765968054624316
 30
0.0
 11
0.9161141102146848
 21
-0.2352551562728031
 31
0.0
  0
LINE
  5
FB
330
70
100
AcDbEntity
  8
MD_USA_106mm_x_23.6mm_rev2M v1_0
100
AcDbLine
 10
-2.811950381302175
 20
-0.0205966272967173
 30
0.0
 11
-2.811950381302175
 21
0.1294035440164687
 31
0.0
  0
LINE
  5
FC
330
70
100
AcDbEntity
  8
MD_USA_106mm_x_23.6mm_rev2M v1_0
100
AcDbLine
 10
1.024500609663823
 20
-0.7801508853667328
 30
0.0
 11
1.073673341912255
 21
-0.8232742141696526
 31
0.0
  0
LINE
  5
FD
330
70
100
AcDbEntity
  8
MD_USA_106mm_x_23.6mm_rev2M v1_0
100
AcDbLine
 10
0.8823314072006516
 20
-0.4918602616306263
 30
0.0
 11
0.8950909393155122
 21
-0.5560067613327187
 31
0.0
  0
LINE
  5
FE
330
70
100
AcDbEntity
  8
MD_USA_106mm_x_23.6mm_rev2M v1_0
100
AcDbLine
 10
0.8950909393155122
 20
-0.5560067613327187
 30
0.0
 11
0.9161141102146848
 21
-0.6179390256960124
 31
0.0
  0
LINE
  5
FF
330
70
100
AcDbEntity
  8
MD_USA_106mm_x_23.6mm_rev2M v1_0
100
AcDbLine
 10
1.048054027157139
 20
-0.9981745102730485
 30
0.0
 11
0.9762714020294103
 21
-0.9502108935889301
 31
0.0
  0
LINE
  5
100
330
70
100
AcDbEntity
  8
MD_USA_106mm_x_23.6mm_rev2M v1_0
100
AcDbLine
 10
1.125483050226829
 20
-1.036358278841938
 30
0.0
 11
1.048054027157139
 21
-0.9981745102730485
 31
0.0
  0
LINE
  5
101
330
70
100
AcDbEntity
  8
MD_USA_106mm_x_23.6mm_rev2M v1_0
100
AcDbLine
 10
1.50746407439446
 20
0.0563663737462281
 30
0.0
 11
1.478054518254936
 21
0.0622162981815255
 31
0.0
  0
LINE
  5
102
330
70
100
AcDbEntity
  8
MD_USA_106mm_x_23.6mm_rev2M v1_0
100
AcDbLine
 10
1.873777400891646
 20
-0.3613339203381896
 30
0.0
 11
1.861017868776785
 21
-0.2971874206360972
 31
0.0
  0
LINE
  5
103
330
70
100
AcDbEntity
  8
MD_USA_106mm_x_23.6mm_rev2M v1_0
100
AcDbLine
 10
5.613318249743094
 20
-1.202354628208106
 30
0.0
 11
5.549684922038617
 21
-1.189697172350163
 31
0.0
  0
LINE
  5
104
330
70
100
AcDbEntity
  8
MD_USA_106mm_x_23.6mm_rev2M v1_0
100
AcDbLine
 10
-3.641951329235137
 20
-0.0205966272967173
 30
0.0
 11
-3.641951329235137
 21
-0.9405976780175897
 31
0.0
  0
LINE
  5
105
330
70
100
AcDbEntity
  8
MD_USA_106mm_x_23.6mm_rev2M v1_0
100
AcDbLine
 10
-1.781949204951632
 20
-0.9405976780175897
 30
0.0
 11
-2.611950152884594
 21
-0.9405976780175897
 31
0.0
  0
LINE
  5
106
330
70
100
AcDbEntity
  8
MD_USA_106mm_x_23.6mm_rev2M v1_0
100
AcDbLine
 10
1.248644733697837
 20
-0.9095605557150442
 30
0.0
 11
1.278054289837355
 21
-0.9154104801503409
 31
0.0
  0
LINE
  5
107
330
70
100
AcDbEntity
  8
MD_USA_106mm_x_23.6mm_rev2M v1_0
100
AcDbLine
 10
-2.811950381302175
 20
-0.0205966272967173
 30
0.0
 11
-3.641951329235137
 21
-0.0205966272967173
 31
0.0
  0
LINE
  5
108
330
70
100
AcDbEntity
  8
MD_USA_106mm_x_23.6mm_rev2M v1_0
100
AcDbLine
 10
0.9813772808609027
 20
-0.7309781531183007
 30
0.0
 11
1.024500609663823
 21
-0.7801508853667328
 31
0.0
  0
LINE
  5
109
330
70
100
AcDbEntity
  8
MD_USA_106mm_x_23.6mm_rev2M v1_0
100
AcDbLine
 10
5.284555608824379
 20
-0.4086514017005513
 30
0.0
 11
5.327333950996875
 21
-0.359872051310107
 31
0.0
  0
LINE
  5
10A
330
70
100
AcDbEntity
  8
MD_USA_106mm_x_23.6mm_rev2M v1_0
100
AcDbLine
 10
1.682435466180042
 20
-0.0299199677991633
 30
0.0
 11
1.628054689568125
 21
0.0064161054463812
 31
0.0
  0
LINE
  5
10B
330
70
100
AcDbEntity
  8
MD_USA_106mm_x_23.6mm_rev2M v1_0
100
AcDbLine
 10
0.8064769847575075
 20
-0.0965967140954003
 30
0.0
 11
0.8544406014416248
 21
-0.0248140889676709
 31
0.0
  0
LINE
  5
10C
330
70
100
AcDbEntity
  8
MD_USA_106mm_x_23.6mm_rev2M v1_0
100
AcDbLine
 10
0.895090939315513
 20
-0.2971874206360969
 30
0.0
 11
0.8823314072006516
 21
-0.3613339203381893
 31
0.0
  0
LINE
  5
10D
330
70
100
AcDbEntity
  8
MD_USA_106mm_x_23.6mm_rev2M v1_0
100
AcDbLine
 10
1.248644733697838
 20
0.0563663737462281
 30
0.0
 11
1.186712469334544
 21
0.0353432028470553
 31
0.0
  0
LINE
  5
10E
330
70
100
AcDbEntity
  8
MD_USA_106mm_x_23.6mm_rev2M v1_0
100
AcDbLine
 10
0.8823314072006516
 20
-0.3613339203381893
 30
0.0
 11
0.8780538330021956
 21
-0.4265970909844077
 31
0.0
  0
LINE
  5
10F
330
70
100
AcDbEntity
  8
MD_USA_106mm_x_23.6mm_rev2M v1_0
100
AcDbLine
 10
0.7682932161886172
 20
-0.6791684448037268
 30
0.0
 11
0.7405426306017091
 21
-0.5974178558441793
 31
0.0
  0
LINE
  5
110
330
70
100
AcDbEntity
  8
MD_USA_106mm_x_23.6mm_rev2M v1_0
100
AcDbLine
 10
1.073673341912255
 20
-0.8232742141696526
 30
0.0
 11
1.128054118524172
 21
-0.859610287415197
 31
0.0
  0
LINE
  5
111
330
70
100
AcDbEntity
  8
MD_USA_106mm_x_23.6mm_rev2M v1_0
100
AcDbLine
 10
0.9113633954614783
 20
0.0400939176002595
 30
0.0
 11
0.9762714020294085
 21
0.0970167116201153
 31
0.0
  0
LINE
  5
112
330
70
100
AcDbEntity
  8
MD_USA_106mm_x_23.6mm_rev2M v1_0
100
AcDbLine
 10
0.9813772808609035
 20
-0.1222160288505152
 30
0.0
 11
0.9450412076153602
 21
-0.1765968054624316
 31
0.0
  0
LINE
  5
113
330
70
100
AcDbEntity
  8
MD_USA_106mm_x_23.6mm_rev2M v1_0
100
AcDbLine
 10
-2.611950152884594
 20
-1.090597849330775
 30
0.0
 11
-1.641949045059325
 21
-1.090597849330775
 31
0.0
  0
LINE
  5
114
330
70
100
AcDbEntity
  8
MD_USA_106mm_x_23.6mm_rev2M v1_0
100
AcDbLine
 10
5.430059031786341
 20
-0.2810483244780304
 30
0.0
 11
5.48824811579023
 21
-0.2523526438565611
 31
0.0
  0
LINE
  5
115
330
70
100
AcDbEntity
  8
MD_USA_106mm_x_23.6mm_rev2M v1_0
100
AcDbLine
 10
3.888117785443927
 20
-0.8830094833129397
 30
0.0
 11
3.788057156478002
 21
-0.9498678580847407
 31
0.0
  0
LINE
  5
116
330
70
100
AcDbEntity
  8
MD_USA_106mm_x_23.6mm_rev2M v1_0
100
AcDbLine
 10
1.548875168905919
 20
-1.064108864428846
 30
0.0
 11
1.478054518254936
 21
-1.078195967709201
 31
0.0
  0
LINE
  5
117
330
70
100
AcDbEntity
  8
MD_USA_106mm_x_23.6mm_rev2M v1_0
100
AcDbLine
 10
0.7405426306017091
 20
-0.2557763261246386
 30
0.0
 11
0.7682932161886172
 21
-0.1740257371650908
 31
0.0
  0
LINE
  5
118
330
70
100
AcDbEntity
  8
MD_USA_106mm_x_23.6mm_rev2M v1_0
100
AcDbLine
 10
0.9113633954614792
 20
-0.8932880995690762
 30
0.0
 11
0.8544406014416257
 21
-0.8283800930011462
 31
0.0
  0
LINE
  5
119
330
70
100
AcDbEntity
  8
MD_USA_106mm_x_23.6mm_rev2M v1_0
100
AcDbLine
 10
6.136304086504952
 20
-0.9004086145712838
 30
0.0
 11
6.107608405883484
 21
-0.9585976985751726
 31
0.0
  0
LINE
  5
11A
330
70
100
AcDbEntity
  8
MD_USA_106mm_x_23.6mm_rev2M v1_0
100
AcDbLine
 10
1.569396338757753
 20
0.0353432028470553
 30
0.0
 11
1.50746407439446
 21
0.0563663737462281
 31
0.0
  0
LINE
  5
11B
330
70
100
AcDbEntity
  8
MD_USA_106mm_x_23.6mm_rev2M v1_0
100
AcDbLine
 10
-3.781951489127443
 20
0.1294035440164687
 30
0.0
 11
-3.781951489127443
 21
-1.090597849330775
 31
0.0
  0
LINE
  5
11C
330
70
100
AcDbEntity
  8
MD_USA_106mm_x_23.6mm_rev2M v1_0
100
AcDbLine
 10
1.073673341912256
 20
-0.0299199677991633
 30
0.0
 11
1.024500609663824
 21
-0.0730432966020829
 31
0.0
  0
LINE
  5
11D
330
70
100
AcDbEntity
  8
MD_USA_106mm_x_23.6mm_rev2M v1_0
100
AcDbLine
 10
0.7180536502681321
 20
-0.4265970909844093
 30
0.0
 11
0.7237000482100929
 21
-0.3404497057314006
 31
0.0
  0
LINE
  5
11E
330
70
100
AcDbEntity
  8
MD_USA_106mm_x_23.6mm_rev2M v1_0
100
AcDbLine
 10
-1.641949045059325
 20
-1.090597849330775
 30
0.0
 11
-1.641949045059325
 21
0.1294035440164687
 31
0.0
  0
LINE
  5
11F
330
70
100
AcDbEntity
  8
MD_USA_106mm_x_23.6mm_rev2M v1_0
100
AcDbLine
 10
0.8780538330021956
 20
-0.4265970909844077
 30
0.0
 11
0.8823314072006516
 21
-0.4918602616306263
 31
0.0
  0
LINE
  5
120
330
70
100
AcDbEntity
  8
MD_USA_106mm_x_23.6mm_rev2M v1_0
100
AcDbLine
 10
0.7682932161886172
 20
-0.1740257371650908
 30
0.0
 11
0.8064769847575075
 21
-0.0965967140954003
 31
0.0
  0
LINE
  5
121
330
70
100
AcDbEntity
  8
MD_USA_106mm_x_23.6mm_rev2M v1_0
100
AcDbLine
 10
0.8064769847575083
 20
-0.7565974678734166
 30
0.0
 11
0.7682932161886172
 21
-0.6791684448037268
 31
0.0
  0
LINE
  5
122
330
70
100
AcDbEntity
  8
MD_USA_106mm_x_23.6mm_rev2M v1_0
100
AcDbLine
 10
1.278054289837355
 20
-0.9154104801503409
 30
0.0
 11
1.278054289837355
 21
-1.0781959677092
 31
0.0
  0
LINE
  5
123
330
70
100
AcDbEntity
  8
MD_USA_106mm_x_23.6mm_rev2M v1_0
100
AcDbLine
 10
5.867870514258052
 20
-0.25235264385656
 30
0.0
 11
5.926059598261941
 21
-0.2810483244780291
 31
0.0
  0
LINE
  5
124
330
70
100
AcDbEntity
  8
MD_USA_106mm_x_23.6mm_rev2M v1_0
100
AcDbLine
 10
1.478054518254936
 20
0.0622162981815255
 30
0.0
 11
1.478054518254936
 21
0.2250017857403876
 31
0.0
  0
LINE
  5
125
330
70
100
AcDbEntity
  8
MD_USA_106mm_x_23.6mm_rev2M v1_0
100
AcDbLine
 10
6.169816527894876
 20
-0.6458563500563216
 30
0.0
 11
6.174059881499743
 21
-0.7105974153373725
 31
0.0
  0
LINE
  5
126
330
70
100
AcDbEntity
  8
MD_USA_106mm_x_23.6mm_rev2M v1_0
100
AcDbLine
 10
-2.811950381302173
 20
-0.9405976780175897
 30
0.0
 11
-2.811950381302173
 21
-1.090597849330775
 31
0.0
  0
LINE
  5
127
330
70
100
AcDbEntity
  8
MD_USA_106mm_x_23.6mm_rev2M v1_0
100
AcDbLine
 10
3.85444108409949
 20
-0.0956235109820352
 30
0.0
 11
3.872716746570637
 21
-0.0718062039441549
 31
0.0
  0
LINE
  5
128
330
70
100
AcDbEntity
  8
MD_USA_106mm_x_23.6mm_rev2M v1_0
100
AcDbLine
 10
-4.371952162959306
 20
0.8694043891615187
 30
0.0
 11
-4.371952162959306
 21
-1.290598077748356
 31
0.0
  0
LINE
  5
129
330
70
100
AcDbEntity
  8
MD_USA_106mm_x_23.6mm_rev2M v1_0
100
AcDbLine
 10
2.032408759882205
 20
-0.5127444762374167
 30
0.0
 11
2.015566177490588
 21
-0.5974178558441788
 31
0.0
  0
LINE
  5
12A
330
70
100
AcDbEntity
  8
MD_USA_106mm_x_23.6mm_rev2M v1_0
100
AcDbLine
 10
1.779837406062885
 20
0.0970167116201177
 30
0.0
 11
1.844745412630816
 21
0.0400939176002622
 31
0.0
  0
LINE
  5
12B
330
70
100
AcDbEntity
  8
MD_USA_106mm_x_23.6mm_rev2M v1_0
100
AcDbLine
 10
1.278054289837355
 20
0.2250017857403861
 30
0.0
 11
1.278054289837355
 21
0.0622162981815244
 31
0.0
  0
LINE
  5
12C
330
70
100
AcDbEntity
  8
MD_USA_106mm_x_23.6mm_rev2M v1_0
100
AcDbLine
 10
4.011534184948627
 20
-0.2527166118311708
 30
0.0
 11
3.983798343458683
 21
-0.2642051735401356
 31
0.0
  0
LINE
  5
12D
330
70
100
AcDbEntity
  8
MD_USA_106mm_x_23.6mm_rev2M v1_0
100
AcDbLine
 10
1.478054518254936
 20
-0.9154104801503422
 30
0.0
 11
1.507464074394458
 21
-0.9095605557150449
 31
0.0
  0
LINE
  5
12E
330
70
100
AcDbEntity
  8
MD_USA_106mm_x_23.6mm_rev2M v1_0
100
AcDbLine
 10
4.053627154457653
 20
-0.0956235109820352
 30
0.0
 11
4.065115716166618
 21
-0.123359352471978
 31
0.0
  0
LINE
  5
12F
330
70
100
AcDbEntity
  8
MD_USA_106mm_x_23.6mm_rev2M v1_0
100
AcDbLine
 10
1.839994697877613
 20
-0.2352551562728034
 30
0.0
 11
1.811067600476937
 21
-0.1765968054624318
 31
0.0
  0
LINE
  5
130
330
70
100
AcDbEntity
  8
MD_USA_106mm_x_23.6mm_rev2M v1_0
100
AcDbLine
 10
4.065115716166618
 20
-0.123359352471978
 30
0.0
 11
4.06903425061868
 21
-0.1531235766520895
 31
0.0
  0
LINE
  5
131
330
70
100
AcDbEntity
  8
MD_USA_106mm_x_23.6mm_rev2M v1_0
100
AcDbLine
 10
4.053627154457653
 20
-0.2106236423221439
 30
0.0
 11
4.035351491986506
 21
-0.2344409493600241
 31
0.0
  0
LINE
  5
132
330
70
100
AcDbEntity
  8
MD_USA_106mm_x_23.6mm_rev2M v1_0
100
AcDbLine
 10
1.774731527231392
 20
-0.730978153118303
 30
0.0
 11
1.811067600476937
 21
-0.6765973765063864
 31
0.0
  0
LINE
  5
133
330
70
100
AcDbEntity
  8
MD_USA_106mm_x_23.6mm_rev2M v1_0
100
AcDbLine
 10
1.861017868776785
 20
-0.5560067613327213
 30
0.0
 11
1.873777400891646
 21
-0.4918602616306291
 31
0.0
  0
LINE
  5
134
330
70
100
AcDbEntity
  8
MD_USA_106mm_x_23.6mm_rev2M v1_0
100
AcDbLine
 10
3.872716746570637
 20
-0.2344409493600241
 30
0.0
 11
3.85444108409949
 21
-0.2106236423221439
 31
0.0
  0
LINE
  5
135
330
70
100
AcDbEntity
  8
MD_USA_106mm_x_23.6mm_rev2M v1_0
100
AcDbLine
 10
1.630625757865465
 20
0.1831640968731256
 30
0.0
 11
1.708054780935155
 21
0.1449803283042359
 31
0.0
  0
LINE
  5
136
330
70
100
AcDbEntity
  8
MD_USA_106mm_x_23.6mm_rev2M v1_0
100
AcDbLine
 10
4.06903425061868
 20
-0.1531235766520895
 30
0.0
 11
4.065115716166618
 21
-0.182887800832201
 31
0.0
  0
LINE
  5
137
330
70
100
AcDbEntity
  8
MD_USA_106mm_x_23.6mm_rev2M v1_0
100
AcDbLine
 10
3.924269895098459
 20
-0.2642051735401356
 30
0.0
 11
3.896534053608518
 21
-0.252716611831171
 31
0.0
  0
LINE
  5
138
330
70
100
AcDbEntity
  8
MD_USA_106mm_x_23.6mm_rev2M v1_0
100
AcDbLine
 10
1.901668206650671
 20
-0.8283800930011461
 30
0.0
 11
1.844745412630818
 21
-0.8932880995690759
 31
0.0
  0
LINE
  5
139
330
70
100
AcDbEntity
  8
MD_USA_106mm_x_23.6mm_rev2M v1_0
100
AcDbLine
 10
3.983798343458683
 20
-0.2642051735401356
 30
0.0
 11
3.954034119278572
 21
-0.2681237079921985
 31
0.0
  0
LINE
  5
13A
330
70
100
AcDbEntity
  8
MD_USA_106mm_x_23.6mm_rev2M v1_0
100
AcDbLine
 10
1.779837406062886
 20
-0.9502108935889301
 30
0.0
 11
1.708054780935158
 21
-0.9981745102730485
 31
0.0
  0
LINE
  5
13B
330
70
100
AcDbEntity
  8
MD_USA_106mm_x_23.6mm_rev2M v1_0
100
AcDbLine
 10
2.015566177490588
 20
-0.5974178558441788
 30
0.0
 11
1.98781559190368
 21
-0.6791684448037266
 31
0.0
  0
LINE
  5
13C
330
70
100
AcDbEntity
  8
MD_USA_106mm_x_23.6mm_rev2M v1_0
100
AcDbLine
 10
-4.271952048750517
 20
-1.390598191957147
 30
0.0
 11
6.128059828963701
 21
-1.390598191957147
 31
0.0
  0
LINE
  5
13D
330
70
100
AcDbEntity
  8
MD_USA_106mm_x_23.6mm_rev2M v1_0
100
AcDbLine
 10
3.85444108409949
 20
-0.2106236423221439
 30
0.0
 11
3.842952522390527
 21
-0.182887800832201
 31
0.0
  0
LINE
  5
13E
330
70
100
AcDbEntity
  8
MD_USA_106mm_x_23.6mm_rev2M v1_0
100
AcDbLine
 10
1.628054689568123
 20
-0.8596102874151984
 30
0.0
 11
1.682435466180041
 21
-0.8232742141696544
 31
0.0
  0
LINE
  5
13F
330
70
100
AcDbEntity
  8
MD_USA_106mm_x_23.6mm_rev2M v1_0
100
AcDbLine
 10
1.708054780935155
 20
0.1449803283042359
 30
0.0
 11
1.779837406062885
 21
0.0970167116201177
 31
0.0
  0
LINE
  5
140
330
70
100
AcDbEntity
  8
MD_USA_106mm_x_23.6mm_rev2M v1_0
100
AcDbLine
 10
3.872716746570637
 20
-0.0718062039441549
 30
0.0
 11
3.896534053608517
 21
-0.0535305414730083
 31
0.0
  0
LINE
  5
141
330
70
100
AcDbEntity
  8
MD_USA_106mm_x_23.6mm_rev2M v1_0
100
AcDbLine
 10
1.90166820665067
 20
-0.024814088967668
 30
0.0
 11
1.949631823334788
 21
-0.0965967140953976
 31
0.0
  0
LINE
  5
142
330
70
100
AcDbEntity
  8
MD_USA_106mm_x_23.6mm_rev2M v1_0
100
AcDbLine
 10
3.983798343458683
 20
-0.0420419797640435
 30
0.0
 11
4.011534184948626
 21
-0.0535305414730083
 31
0.0
  0
LINE
  5
143
330
70
100
AcDbEntity
  8
MD_USA_106mm_x_23.6mm_rev2M v1_0
100
AcDbLine
 10
3.954034119278572
 20
-0.2681237079921985
 30
0.0
 11
3.924269895098459
 21
-0.2642051735401356
 31
0.0
  0
LINE
  5
144
330
70
100
AcDbEntity
  8
MD_USA_106mm_x_23.6mm_rev2M v1_0
100
AcDbLine
 10
2.015566177490587
 20
-0.2557763261246353
 30
0.0
 11
2.032408759882205
 21
-0.3404497057313969
 31
0.0
  0
LINE
  5
145
330
70
100
AcDbEntity
  8
MD_USA_106mm_x_23.6mm_rev2M v1_0
100
AcDbLine
 10
-4.368544741696645
 20
0.8952863232311809
 30
0.0
 11
-4.358554688036674
 21
0.9194044462659141
 31
0.0
  0
LINE
  5
146
330
70
100
AcDbEntity
  8
MD_USA_106mm_x_23.6mm_rev2M v1_0
100
AcDbLine
 10
-4.321952105854911
 20
0.9560070284476767
 30
0.0
 11
-4.297833982820177
 21
0.9659970821076457
 31
0.0
  0
LINE
  5
147
330
70
100
AcDbEntity
  8
MD_USA_106mm_x_23.6mm_rev2M v1_0
100
AcDbLine
 10
2.032408759882205
 20
-0.3404497057313969
 30
0.0
 11
2.038055157824167
 21
-0.4265970909844083
 31
0.0
  0
LINE
  5
148
330
70
100
AcDbEntity
  8
MD_USA_106mm_x_23.6mm_rev2M v1_0
100
AcDbLine
 10
1.839994697877611
 20
-0.617939025696015
 30
0.0
 11
1.861017868776785
 21
-0.5560067613327213
 31
0.0
  0
LINE
  5
149
330
70
100
AcDbEntity
  8
MD_USA_106mm_x_23.6mm_rev2M v1_0
100
AcDbLine
 10
1.478054518254936
 20
-1.078195967709201
 30
0.0
 11
1.478054518254936
 21
-0.9154104801503422
 31
0.0
  0
LINE
  5
14A
330
70
100
AcDbEntity
  8
MD_USA_106mm_x_23.6mm_rev2M v1_0
100
AcDbLine
 10
3.896534053608518
 20
-0.252716611831171
 30
0.0
 11
3.872716746570637
 21
-0.2344409493600241
 31
0.0
  0
LINE
  5
14B
330
70
100
AcDbEntity
  8
MD_USA_106mm_x_23.6mm_rev2M v1_0
100
AcDbLine
 10
0.9762714020294085
 20
0.0970167116201153
 30
0.0
 11
1.048054027157138
 21
0.1449803283042335
 31
0.0
  0
LINE
  5
14C
330
70
100
AcDbEntity
  8
MD_USA_106mm_x_23.6mm_rev2M v1_0
100
AcDbLine
 10
1.708054780935158
 20
-0.9981745102730485
 30
0.0
 11
1.630625757865466
 21
-1.036358278841938
 31
0.0
  0
LINE
  5
14D
330
70
100
AcDbEntity
  8
MD_USA_106mm_x_23.6mm_rev2M v1_0
100
AcDbLine
 10
0.7237000482100929
 20
-0.5127444762374171
 30
0.0
 11
0.7180536502681321
 21
-0.4265970909844093
 31
0.0
  0
LINE
  5
14E
330
70
100
AcDbEntity
  8
MD_USA_106mm_x_23.6mm_rev2M v1_0
100
AcDbLine
 10
3.924269895098459
 20
-0.0420419797640435
 30
0.0
 11
3.954034119278572
 21
-0.0381234453119805
 31
0.0
  0
LINE
  5
14F
330
70
100
AcDbEntity
  8
MD_USA_106mm_x_23.6mm_rev2M v1_0
100
AcDbLine
 10
-2.611950152884594
 20
-0.9405976780175897
 30
0.0
 11
-2.611950152884594
 21
-1.090597849330775
 31
0.0
  0
LINE
  5
150
330
70
100
AcDbEntity
  8
MD_USA_106mm_x_23.6mm_rev2M v1_0
100
AcDbLine
 10
3.896534053608517
 20
-0.0535305414730083
 30
0.0
 11
3.924269895098459
 21
-0.0420419797640435
 31
0.0
  0
LINE
  5
151
330
70
100
AcDbEntity
  8
MD_USA_106mm_x_23.6mm_rev2M v1_0
100
AcDbLine
 10
1.507464074394458
 20
-0.9095605557150449
 30
0.0
 11
1.569396338757751
 21
-0.8885373848158726
 31
0.0
  0
LINE
  5
152
330
70
100
AcDbEntity
  8
MD_USA_106mm_x_23.6mm_rev2M v1_0
100
AcDbLine
 10
1.731608198428472
 20
-0.780150885366735
 30
0.0
 11
1.774731527231392
 21
-0.730978153118303
 31
0.0
  0
LINE
  5
153
330
70
100
AcDbEntity
  8
MD_USA_106mm_x_23.6mm_rev2M v1_0
100
AcDbLine
 10
1.949631823334788
 20
-0.0965967140953976
 30
0.0
 11
1.987815591903679
 21
-0.1740257371650875
 31
0.0
  0
LINE
  5
154
330
70
100
AcDbEntity
  8
MD_USA_106mm_x_23.6mm_rev2M v1_0
100
AcDbLine
 10
1.731608198428474
 20
-0.0730432966020831
 30
0.0
 11
1.682435466180042
 21
-0.0299199677991633
 31
0.0
  0
LINE
  5
155
330
70
100
AcDbEntity
  8
MD_USA_106mm_x_23.6mm_rev2M v1_0
100
AcDbLine
 10
0.7405426306017091
 20
-0.5974178558441793
 30
0.0
 11
0.7237000482100929
 21
-0.5127444762374171
 31
0.0
  0
LINE
  5
156
330
70
100
AcDbEntity
  8
MD_USA_106mm_x_23.6mm_rev2M v1_0
100
AcDbLine
 10
1.774731527231392
 20
-0.1222160288505152
 30
0.0
 11
1.731608198428474
 21
-0.0730432966020831
 31
0.0
  0
LINE
  5
157
330
70
100
AcDbEntity
  8
MD_USA_106mm_x_23.6mm_rev2M v1_0
100
AcDbLine
 10
3.842952522390527
 20
-0.1233593524719783
 30
0.0
 11
3.85444108409949
 21
-0.0956235109820352
 31
0.0
  0
LINE
  5
158
330
70
100
AcDbEntity
  8
MD_USA_106mm_x_23.6mm_rev2M v1_0
100
AcDbLine
 10
1.98781559190368
 20
-0.6791684448037266
 30
0.0
 11
1.949631823334791
 21
-0.756597467873416
 31
0.0
  0
LINE
  5
159
330
70
100
AcDbEntity
  8
MD_USA_106mm_x_23.6mm_rev2M v1_0
100
AcDbLine
 10
-4.297833982820177
 20
0.9659970821076457
 30
0.0
 11
-4.271952048750517
 21
0.9694045033703094
 31
0.0
  0
LINE
  5
15A
330
70
100
AcDbEntity
  8
MD_USA_106mm_x_23.6mm_rev2M v1_0
100
AcDbLine
 10
2.038055157824167
 20
-0.4265970909844083
 30
0.0
 11
2.032408759882205
 21
-0.5127444762374167
 31
0.0
  0
LINE
  5
15B
330
70
100
AcDbEntity
  8
MD_USA_106mm_x_23.6mm_rev2M v1_0
100
AcDbLine
 10
-4.358554688036674
 20
0.9194044462659141
 30
0.0
 11
-4.342662807626981
 21
0.9401151480379832
 31
0.0
  0
LINE
  5
15C
330
70
100
AcDbEntity
  8
MD_USA_106mm_x_23.6mm_rev2M v1_0
100
AcDbLine
 10
1.987815591903679
 20
-0.1740257371650875
 30
0.0
 11
2.015566177490587
 21
-0.2557763261246353
 31
0.0
  0
LINE
  5
15D
330
70
100
AcDbEntity
  8
MD_USA_106mm_x_23.6mm_rev2M v1_0
100
AcDbLine
 10
1.844745412630816
 20
0.0400939176002622
 30
0.0
 11
1.90166820665067
 21
-0.024814088967668
 31
0.0
  0
LINE
  5
15E
330
70
100
AcDbEntity
  8
MD_USA_106mm_x_23.6mm_rev2M v1_0
100
AcDbLine
 10
1.278054289837355
 20
-1.0781959677092
 30
0.0
 11
1.207233639186378
 21
-1.064108864428846
 31
0.0
  0
LINE
  5
15F
330
70
100
AcDbEntity
  8
MD_USA_106mm_x_23.6mm_rev2M v1_0
100
AcDbLine
 10
1.861017868776785
 20
-0.2971874206360972
 30
0.0
 11
1.839994697877613
 21
-0.2352551562728034
 31
0.0
  0
LINE
  5
160
330
70
100
AcDbEntity
  8
MD_USA_106mm_x_23.6mm_rev2M v1_0
100
AcDbLine
 10
1.878054975090101
 20
-0.4265970909844083
 30
0.0
 11
1.873777400891646
 21
-0.3613339203381896
 31
0.0
  0
LINE
  5
161
330
70
100
AcDbEntity
  8
MD_USA_106mm_x_23.6mm_rev2M v1_0
100
AcDbLine
 10
0.9762714020294103
 20
-0.9502108935889301
 30
0.0
 11
0.9113633954614792
 21
-0.8932880995690762
 31
0.0
  0
LINE
  5
162
330
70
100
AcDbEntity
  8
MD_USA_106mm_x_23.6mm_rev2M v1_0
100
AcDbLine
 10
1.844745412630818
 20
-0.8932880995690759
 30
0.0
 11
1.779837406062886
 21
-0.9502108935889301
 31
0.0
  0
LINE
  5
163
330
70
100
AcDbEntity
  8
MD_USA_106mm_x_23.6mm_rev2M v1_0
100
AcDbLine
 10
4.011534184948626
 20
-0.0535305414730083
 30
0.0
 11
4.035351491986506
 21
-0.0718062039441547
 31
0.0
  0
LINE
  5
164
330
70
100
AcDbEntity
  8
MD_USA_106mm_x_23.6mm_rev2M v1_0
100
AcDbLine
 10
1.873777400891646
 20
-0.4918602616306291
 30
0.0
 11
1.878054975090101
 21
-0.4265970909844083
 31
0.0
  0
LINE
  5
165
330
70
100
AcDbEntity
  8
MD_USA_106mm_x_23.6mm_rev2M v1_0
100
AcDbLine
 10
1.682435466180041
 20
-0.8232742141696544
 30
0.0
 11
1.731608198428472
 21
-0.780150885366735
 31
0.0
  0
LINE
  5
166
330
70
100
AcDbEntity
  8
MD_USA_106mm_x_23.6mm_rev2M v1_0
100
AcDbLine
 10
4.065115716166618
 20
-0.182887800832201
 30
0.0
 11
4.053627154457653
 21
-0.2106236423221439
 31
0.0
  0
LINE
  5
167
330
70
100
AcDbEntity
  8
MD_USA_106mm_x_23.6mm_rev2M v1_0
100
AcDbLine
 10
3.842952522390527
 20
-0.182887800832201
 30
0.0
 11
3.839033987938464
 21
-0.1531235766520895
 31
0.0
  0
LINE
  5
168
330
70
100
AcDbEntity
  8
MD_USA_106mm_x_23.6mm_rev2M v1_0
100
AcDbLine
 10
-1.641949045059325
 20
0.1294035440164687
 30
0.0
 11
-2.611950152884594
 21
0.1294035440164687
 31
0.0
  0
LINE
  5
169
330
70
100
AcDbEntity
  8
MD_USA_106mm_x_23.6mm_rev2M v1_0
100
AcDbLine
 10
1.569396338757753
 20
0.0353432028470553
 30
0.0
 11
1.628054689568125
 21
0.0064161054463812
 31
0.0
  0
LINE
  5
16A
330
70
100
AcDbEntity
  8
MD_USA_106mm_x_23.6mm_rev2M v1_0
100
AcDbLine
 10
1.207233639186378
 20
-1.064108864428846
 30
0.0
 11
1.125483050226829
 21
-1.036358278841938
 31
0.0
  0
LINE
  5
16B
330
70
100
AcDbEntity
  8
MD_USA_106mm_x_23.6mm_rev2M v1_0
100
AcDbLine
 10
-2.611950152884594
 20
-0.0205734272702203
 30
0.0
 11
-2.611950152884594
 21
0.1294035440164687
 31
0.0
  0
LINE
  5
16C
330
70
100
AcDbEntity
  8
MD_USA_106mm_x_23.6mm_rev2M v1_0
100
AcDbLine
 10
1.630625757865466
 20
-1.036358278841938
 30
0.0
 11
1.548875168905919
 21
-1.064108864428846
 31
0.0
  0
LINE
  5
16D
330
70
100
AcDbEntity
  8
MD_USA_106mm_x_23.6mm_rev2M v1_0
100
AcDbLine
 10
4.035351491986506
 20
-0.2344409493600241
 30
0.0
 11
4.011534184948627
 21
-0.2527166118311708
 31
0.0
  0
LINE
  5
16E
330
70
100
AcDbEntity
  8
MD_USA_106mm_x_23.6mm_rev2M v1_0
100
AcDbLine
 10
3.954034119278572
 20
-0.0381234453119805
 30
0.0
 11
3.983798343458683
 21
-0.0420419797640435
 31
0.0
  0
LINE
  5
16F
330
70
100
AcDbEntity
  8
MD_USA_106mm_x_23.6mm_rev2M v1_0
100
AcDbLine
 10
1.186712469334542
 20
-0.8885373848158714
 30
0.0
 11
1.128054118524172
 21
-0.859610287415197
 31
0.0
  0
LINE
  5
170
330
70
100
AcDbEntity
  8
MD_USA_106mm_x_23.6mm_rev2M v1_0
100
AcDbLine
 10
-4.371952162959306
 20
0.8694043891615187
 30
0.0
 11
-4.368544741696645
 21
0.8952863232311809
 31
0.0
  0
LINE
  5
171
330
70
100
AcDbEntity
  8
MD_USA_106mm_x_23.6mm_rev2M v1_0
100
AcDbLine
 10
4.035351491986506
 20
-0.0718062039441547
 30
0.0
 11
4.053627154457653
 21
-0.0956235109820352
 31
0.0
  0
LINE
  5
172
330
70
100
AcDbEntity
  8
MD_USA_106mm_x_23.6mm_rev2M v1_0
100
AcDbLine
 10
1.548875168905916
 20
0.210914682460033
 30
0.0
 11
1.630625757865465
 21
0.1831640968731256
 31
0.0
  0
LINE
  5
173
330
70
100
AcDbEntity
  8
MD_USA_106mm_x_23.6mm_rev2M v1_0
100
AcDbLine
 10
1.628054689568123
 20
-0.8596102874151984
 30
0.0
 11
1.569396338757751
 21
-0.8885373848158726
 31
0.0
  0
LINE
  5
174
330
70
100
AcDbEntity
  8
MD_USA_106mm_x_23.6mm_rev2M v1_0
100
AcDbLine
 10
1.478054518254936
 20
0.2250017857403876
 30
0.0
 11
1.548875168905916
 21
0.210914682460033
 31
0.0
  0
LINE
  5
175
330
70
100
AcDbEntity
  8
MD_USA_106mm_x_23.6mm_rev2M v1_0
100
AcDbLine
 10
1.125483050226828
 20
0.1831640968731239
 30
0.0
 11
1.207233639186376
 21
0.2109146824600319
 31
0.0
  0
LINE
  5
176
330
70
100
AcDbEntity
  8
MD_USA_106mm_x_23.6mm_rev2M v1_0
100
AcDbLine
 10
3.839033987938464
 20
-0.1531235766520895
 30
0.0
 11
3.842952522390527
 21
-0.1233593524719783
 31
0.0
  0
LINE
  5
177
330
70
100
AcDbEntity
  8
MD_USA_106mm_x_23.6mm_rev2M v1_0
100
AcDbLine
 10
1.128054118524172
 20
0.0064161054463812
 30
0.0
 11
1.186712469334544
 21
0.0353432028470553
 31
0.0
  0
LINE
  5
178
330
70
100
AcDbEntity
  8
MD_USA_106mm_x_23.6mm_rev2M v1_0
100
AcDbLine
 10
1.949631823334791
 20
-0.756597467873416
 30
0.0
 11
1.901668206650671
 21
-0.8283800930011461
 31
0.0
  0
LINE
  5
179
330
70
100
AcDbEntity
  8
MD_USA_106mm_x_23.6mm_rev2M v1_0
100
AcDbLine
 10
-4.342662807626981
 20
0.9401151480379832
 30
0.0
 11
-4.321952105854911
 21
0.9560070284476767
 31
0.0
  0
LINE
  5
17A
330
70
100
AcDbEntity
  8
MD_USA_106mm_x_23.6mm_rev2M v1_0
100
AcDbLine
 10
1.811067600476937
 20
-0.6765973765063864
 30
0.0
 11
1.839994697877611
 21
-0.617939025696015
 31
0.0
  0
ENDSEC
  0
SECTION
  2
OBJECTS
  0
DICTIONARY
  5
C
330
0
100
AcDbDictionary
281
     1
  3
ACAD_COLOR
350
63
  3
ACAD_DETAILVIEWSTYLE
350
6A
  3
ACAD_GROUP
350
D
  3
ACAD_LAYOUT
350
62
  3
ACAD_MATERIAL
350
10
  3
ACAD_MLEADERSTYLE
350
66
  3
ACAD_MLINESTYLE
350
5F
  3
ACAD_PLOTSETTINGS
350
61
  3
ACAD_PLOTSTYLENAME
350
E
  3
ACAD_SCALELIST
350
42
  3
ACAD_SECTIONVIEWSTYLE
350
68
  3
ACAD_TABLESTYLE
350
64
  3
ACAD_VISUALSTYLE
350
29
  3
ACDB_RECOMPOSE_DATA
350
183
  3
AcDbVariableDictionary
350
17B
  0
DICTIONARY
  5
63
102
{ACAD_REACTORS
330
C
102
}
330
C
100
AcDbDictionary
281
     1
  0
DICTIONARY
  5
6A
102
{ACAD_REACTORS
330
C
102
}
330
C
100
AcDbDictionary
281
     1
  3
Imperial24
350
6B
  0
DICTIONARY
  5
D
102
{ACAD_REACTORS
330
C
102
}
330
C
100
AcDbDictionary
281
     1
  0
DICTIONARY
  5
62
102
{ACAD_REACTORS
330
C
102
}
330
C
100
AcDbDictionary
281
     1
  3
Layout1
350
6F
  3
Layout2
350
77
  3
Model
350
73
  0
DICTIONARY
  5
10
102
{ACAD_REACTORS
330
C
102
}
330
C
100
AcDbDictionary
281
     1
  3
ByBlock
350
19
  3
ByLayer
350
11
  3
Global
350
21
  0
DICTIONARY
  5
66
102
{ACAD_REACTORS
330
C
102
}
330
C
100
AcDbDictionary
281
     1
  3
Standard
350
67
  0
DICTIONARY
  5
5F
102
{ACAD_REACTORS
330
C
102
}
330
C
100
AcDbDictionary
281
     1
  3
Standard
350
60
  0
DICTIONARY
  5
61
102
{ACAD_REACTORS
330
C
102
}
330
C
100
AcDbDictionary
281
     1
  0
ACDBDICTIONARYWDFLT
  5
E
102
{ACAD_REACTORS
330
C
102
}
330
C
100
AcDbDictionary
281
     1
  3
Normal
350
F
100
AcDbDictionaryWithDefault
340
F
  0
DICTIONARY
  5
42
102
{ACAD_REACTORS
330
C
102
}
330
C
100
AcDbDictionary
281
     1
  3
A0
350
43
  3
A1
350
44
  3
A2
350
45
  3
A3
350
46
  3
A4
350
47
  3
A5
350
48
  3
A6
350
49
  3
A7
350
4A
  3
A8
350
4B
  3
A9
350
4C
  3
B0
350
4D
  3
B1
350
4E
  3
B2
350
4F
  3
B3
350
50
  3
B4
350
51
  3
B5
350
52
  3
B6
350
53
  0
DICTIONARY
  5
68
102
{ACAD_REACTORS
330
C
102
}
330
C
100
AcDbDictionary
281
     1
  3
Imperial24
350
69
  0
DICTIONARY
  5
64
102
{ACAD_REACTORS
330
C
102
}
330
C
100
AcDbDictionary
281
     1
  3
Standard
350
65
  0
DICTIONARY
  5
29
102
{ACAD_REACTORS
330
C
102
}
330
C
100
AcDbDictionary
281
     1
  3
2dWireframe
350
2F
  3
Basic
350
2E
  3
Brighten
350
35
  3
ColorChange
350
39
  3
Conceptual
350
32
  3
Dim
350
34
  3
EdgeColorOff
350
41
  3
Facepattern
350
38
  3
Flat
350
2A
  3
FlatWithEdges
350
2B
  3
Gouraud
350
2C
  3
GouraudWithEdges
350
2D
  3
Hidden
350
31
  3
JitterOff
350
3F
  3
Linepattern
350
37
  3
OverhangOff
350
40
  3
Realistic
350
33
  3
Shaded
350
3E
  3
Shaded with edges
350
3D
  3
Shades of Gray
350
3A
  3
Sketchy
350
3B
  3
Thicken
350
36
  3
Wireframe
350
30
  3
X-Ray
350
3C
  0
XRECORD
  5
183
102
{ACAD_REACTORS
330
C
102
}
330
C
100
AcDbXrecord
280
     1
 90
        1
330
65
  0
DICTIONARY
  5
17B
102
{ACAD_REACTORS
330
C
102
}
330
C
100
AcDbDictionary
281
     1
  3
CANNOSCALE
350
180
  3
CMLEADERSTYLE
350
17D
  3
CTABLESTYLE
350
17C
  3
CVIEWDETAILSTYLE
350
17E
  3
CVIEWSECTIONSTYLE
350
17F
  0
ACDBDETAILVIEWSTYLE
  5
6B
102
{ACAD_XDICTIONARY
360
186
102
}
102
{ACAD_REACTORS
330
6A
102
}
330
6A
100
AcDbModelDocViewStyle
 70
     0
  3
Imperial24
290
     0
100
AcDbDetailViewStyle
 70
     0
 71
     0
 90
        3
 71
     1
340
55
 62
   256
 40
0.24
340
0
 62
   256
 40
0.24
300

 40
0.36
280
     3
 71
     2
340
5D
 90
       25
 62
   256
 71
     3
340
55
 62
   256
 40
0.24
 90
        1
 40
0.75
 90
        1
300
%<\AcVar ViewType \f "%tc1">% %<\AcVar ViewDetailId>%\PSCALE %<\AcVar ViewScale \f "%sn">%
 71
     4
340
5D
 90
       25
 62
   256
340
5D
 90
       25
 62
   256
280
     0
  0
LAYOUT
  5
6F
102
{ACAD_REACTORS
330
62
102
}
330
62
100
AcDbPlotSettings
  1

  2

  4

  6

 40
0.0
 41
0.0
 42
0.0
 43
0.0
 44
0.0
 45
0.0
 46
0.0
 47
0.0
 48
0.0
 49
0.0
140
0.0
141
0.0
142
1.0
143
1.0
 70
   688
 72
     0
 73
     0
 74
     5
  7

 75
    16
147
1.0
 76
     0
 77
     2
 78
   300
148
0.0
149
0.0
100
AcDbLayout
  1
Layout1
 70
     1
 71
     1
 10
0.0
 20
0.0
 11
12.0
 21
9.0
 12
0.0
 22
0.0
 32
0.0
 14
0.0
 24
0.0
 34
0.0
 15
0.0
 25
0.0
 35
0.0
146
0.0
 13
0.0
 23
0.0
 33
0.0
 16
1.0
 26
0.0
 36
0.0
 17
0.0
 27
1.0
 37
0.0
 76
     0
330
6C
  0
LAYOUT
  5
77
102
{ACAD_REACTORS
330
62
102
}
330
62
100
AcDbPlotSettings
  1

  2

  4

  6

 40
0.0
 41
0.0
 42
0.0
 43
0.0
 44
0.0
 45
0.0
 46
0.0
 47
0.0
 48
0.0
 49
0.0
140
0.0
141
0.0
142
1.0
143
1.0
 70
   688
 72
     0
 73
     0
 74
     5
  7

 75
    16
147
1.0
 76
     0
 77
     2
 78
   300
148
0.0
149
0.0
100
AcDbLayout
  1
Layout2
 70
     1
 71
     2
 10
0.0
 20
0.0
 11
12.0
 21
9.0
 12
0.0
 22
0.0
 32
0.0
 14
0.0
 24
0.0
 34
0.0
 15
0.0
 25
0.0
 35
0.0
146
0.0
 13
0.0
 23
0.0
 33
0.0
 16
1.0
 26
0.0
 36
0.0
 17
0.0
 27
1.0
 37
0.0
 76
     0
330
74
  0
LAYOUT
  5
73
102
{ACAD_REACTORS
330
62
102
}
330
62
100
AcDbPlotSettings
  1

  2

  4

  6

 40
0.0
 41
0.0
 42
0.0
 43
0.0
 44
0.0
 45
0.0
 46
0.0
 47
0.0
 48
0.0
 49
0.0
140
0.0
141
0.0
142
1.0
143
1.0
 70
  1712
 72
     0
 73
     0
 74
     0
  7

 75
     0
147
1.0
 76
     0
 77
     2
 78
   300
148
0.0
149
0.0
100
AcDbLayout
  1
Model
 70
     1
 71
     0
 10
0.0
 20
0.0
 11
12.0
 21
9.0
 12
0.0
 22
0.0
 32
0.0
 14
0.0
 24
0.0
 34
0.0
 15
0.0
 25
0.0
 35
0.0
146
0.0
 13
0.0
 23
0.0
 33
0.0
 16
1.0
 26
0.0
 36
0.0
 17
0.0
 27
1.0
 37
0.0
 76
     0
330
70
  0
MATERIAL
  5
19
102
{ACAD_XDICTIONARY
360
1A
102
}
102
{ACAD_REACTORS
330
10
102
}
330
10
100
AcDbMaterial
  1
ByBlock
 72
     0
 43
0.0208333333333333
 43
0.0
 43
0.0
 43
0.0
 43
0.0
 43
0.0208333333333333
 43
0.0
 43
0.0
 43
0.0
 43
0.0
 43
1.0
 43
0.0
 43
0.0
 43
0.0
 43
0.0
 43
1.0
 77
     0
 47
0.0208333333333333
 47
0.0
 47
0.0
 47
0.0
 47
0.0
 47
0.0208333333333333
 47
0.0
 47
0.0
 47
0.0
 47
0.0
 47
1.0
 47
0.0
 47
0.0
 47
0.0
 47
0.0
 47
1.0
171
     0
 49
0.0208333333333333
 49
0.0
 49
0.0
 49
0.0
 49
0.0
 49
0.0208333333333333
 49
0.0
 49
0.0
 49
0.0
 49
0.0
 49
1.0
 49
0.0
 49
0.0
 49
0.0
 49
0.0
 49
1.0
175
     0
142
0.0208333333333333
142
0.0
142
0.0
142
0.0
142
0.0
142
0.0208333333333333
142
0.0
142
0.0
142
0.0
142
0.0
142
1.0
142
0.0
142
0.0
142
0.0
142
0.0
142
1.0
179
     0
144
0.0208333333333333
144
0.0
144
0.0
144
0.0
144
0.0
144
0.0208333333333333
144
0.0
144
0.0
144
0.0
144
0.0
144
1.0
144
0.0
144
0.0
144
0.0
144
0.0
144
1.0
147
0.0208333333333333
147
0.0
147
0.0
147
0.0
147
0.0
147
0.0208333333333333
147
0.0
147
0.0
147
0.0
147
0.0
147
1.0
147
0.0
147
0.0
147
0.0
147
0.0
147
1.0
  0
MATERIAL
  5
11
102
{ACAD_XDICTIONARY
360
12
102
}
102
{ACAD_REACTORS
330
10
102
}
330
10
100
AcDbMaterial
  1
ByLayer
 72
     0
 43
0.0208333333333333
 43
0.0
 43
0.0
 43
0.0
 43
0.0
 43
0.0208333333333333
 43
0.0
 43
0.0
 43
0.0
 43
0.0
 43
1.0
 43
0.0
 43
0.0
 43
0.0
 43
0.0
 43
1.0
 77
     0
 47
0.0208333333333333
 47
0.0
 47
0.0
 47
0.0
 47
0.0
 47
0.0208333333333333
 47
0.0
 47
0.0
 47
0.0
 47
0.0
 47
1.0
 47
0.0
 47
0.0
 47
0.0
 47
0.0
 47
1.0
171
     0
 49
0.0208333333333333
 49
0.0
 49
0.0
 49
0.0
 49
0.0
 49
0.0208333333333333
 49
0.0
 49
0.0
 49
0.0
 49
0.0
 49
1.0
 49
0.0
 49
0.0
 49
0.0
 49
0.0
 49
1.0
175
     0
142
0.0208333333333333
142
0.0
142
0.0
142
0.0
142
0.0
142
0.0208333333333333
142
0.0
142
0.0
142
0.0
142
0.0
142
1.0
142
0.0
142
0.0
142
0.0
142
0.0
142
1.0
179
     0
144
0.0208333333333333
144
0.0
144
0.0
144
0.0
144
0.0
144
0.0208333333333333
144
0.0
144
0.0
144
0.0
144
0.0
144
1.0
144
0.0
144
0.0
144
0.0
144
0.0
144
1.0
147
0.0208333333333333
147
0.0
147
0.0
147
0.0
147
0.0
147
0.0208333333333333
147
0.0
147
0.0
147
0.0
147
0.0
147
1.0
147
0.0
147
0.0
147
0.0
147
0.0
147
1.0
  0
MATERIAL
  5
21
102
{ACAD_XDICTIONARY
360
22
102
}
102
{ACAD_REACTORS
330
10
102
}
330
10
100
AcDbMaterial
  1
Global
 72
     0
 43
0.0208333333333333
 43
0.0
 43
0.0
 43
0.0
 43
0.0
 43
0.0208333333333333
 43
0.0
 43
0.0
 43
0.0
 43
0.0
 43
1.0
 43
0.0
 43
0.0
 43
0.0
 43
0.0
 43
1.0
 77
     0
 47
0.0208333333333333
 47
0.0
 47
0.0
 47
0.0
 47
0.0
 47
0.0208333333333333
 47
0.0
 47
0.0
 47
0.0
 47
0.0
 47
1.0
 47
0.0
 47
0.0
 47
0.0
 47
0.0
 47
1.0
171
     0
 49
0.0208333333333333
 49
0.0
 49
0.0
 49
0.0
 49
0.0
 49
0.0208333333333333
 49
0.0
 49
0.0
 49
0.0
 49
0.0
 49
1.0
 49
0.0
 49
0.0
 49
0.0
 49
0.0
 49
1.0
175
     0
142
0.0208333333333333
142
0.0
142
0.0
142
0.0
142
0.0
142
0.0208333333333333
142
0.0
142
0.0
142
0.0
142
0.0
142
1.0
142
0.0
142
0.0
142
0.0
142
0.0
142
1.0
179
     0
144
0.0208333333333333
144
0.0
144
0.0
144
0.0
144
0.0
144
0.0208333333333333
144
0.0
144
0.0
144
0.0
144
0.0
144
1.0
144
0.0
144
0.0
144
0.0
144
0.0
144
1.0
147
0.0208333333333333
147
0.0
147
0.0
147
0.0
147
0.0
147
0.0208333333333333
147
0.0
147
0.0
147
0.0
147
0.0
147
1.0
147
0.0
147
0.0
147
0.0
147
0.0
147
1.0
  0
MLEADERSTYLE
  5
67
102
{ACAD_REACTORS
330
66
102
}
330
66
100
AcDbMLeaderStyle
179
     2
170
     2
171
     1
172
     0
 90
        2
 40
0.0
 41
0.0
173
     1
 91
-1056964608
340
5B
 92
       -2
290
     1
 42
0.09
291
     1
 43
0.36
  3
Standard
 44
0.18
300

342
55
174
     1
178
     6
175
     1
176
     0
 93
-1056964608
 45
0.18
292
     0
297
     0
 46
0.18
 94
-1056964608
 47
1.0
 49
1.0
140
1.0
293
     1
141
0.0
294
     1
177
     0
142
1.0
295
     0
296
     0
143
0.125
271
     0
272
     9
273
     9
298
     1
  0
MLINESTYLE
  5
60
102
{ACAD_REACTORS
330
5F
102
}
330
5F
100
AcDbMlineStyle
  2
STANDARD
 70
     0
  3

 62
   256
 51
90.0
 52
90.0
 71
     2
 49
0.5
 62
   256
  6
BYLAYER
 49
-0.5
 62
   256
  6
BYLAYER
  0
ACDBPLACEHOLDER
  5
F
102
{ACAD_REACTORS
330
E
102
}
330
E
  0
SCALE
  5
43
102
{ACAD_REACTORS
330
42
102
}
330
42
100
AcDbScale
 70
     0
300
1:1
140
1.0
141
1.0
290
     1
  0
SCALE
  5
44
102
{ACAD_REACTORS
330
42
102
}
330
42
100
AcDbScale
 70
     0
300
1/128" = 1'-0"
140
0.0078125
141
12.0
290
     0
  0
SCALE
  5
45
102
{ACAD_REACTORS
330
42
102
}
330
42
100
AcDbScale
 70
     0
300
1/64" = 1'-0"
140
0.015625
141
12.0
290
     0
  0
SCALE
  5
46
102
{ACAD_REACTORS
330
42
102
}
330
42
100
AcDbScale
 70
     0
300
1/32" = 1'-0"
140
0.03125
141
12.0
290
     0
  0
SCALE
  5
47
102
{ACAD_REACTORS
330
42
102
}
330
42
100
AcDbScale
 70
     0
300
1/16" = 1'-0"
140
0.0625
141
12.0
290
     0
  0
SCALE
  5
48
102
{ACAD_REACTORS
330
42
102
}
330
42
100
AcDbScale
 70
     0
300
3/32" = 1'-0"
140
0.09375
141
12.0
290
     0
  0
SCALE
  5
49
102
{ACAD_REACTORS
330
42
102
}
330
42
100
AcDbScale
 70
     0
300
1/8" = 1'-0"
140
0.125
141
12.0
290
     0
  0
SCALE
  5
4A
102
{ACAD_REACTORS
330
42
102
}
330
42
100
AcDbScale
 70
     0
300
3/16" = 1'-0"
140
0.1875
141
12.0
290
     0
  0
SCALE
  5
4B
102
{ACAD_REACTORS
330
42
102
}
330
42
100
AcDbScale
 70
     0
300
1/4" = 1'-0"
140
0.25
141
12.0
290
     0
  0
SCALE
  5
4C
102
{ACAD_REACTORS
330
42
102
}
330
42
100
AcDbScale
 70
     0
300
3/8" = 1'-0"
140
0.375
141
12.0
290
     0
  0
SCALE
  5
4D
102
{ACAD_REACTORS
330
42
102
}
330
42
100
AcDbScale
 70
     0
300
1/2" = 1'-0"
140
0.5
141
12.0
290
     0
  0
SCALE
  5
4E
102
{ACAD_REACTORS
330
42
102
}
330
42
100
AcDbScale
 70
     0
300
3/4" = 1'-0"
140
0.75
141
12.0
290
     0
  0
SCALE
  5
4F
102
{ACAD_REACTORS
330
42
102
}
330
42
100
AcDbScale
 70
     0
300
1" = 1'-0"
140
1.0
141
12.0
290
     0
  0
SCALE
  5
50
102
{ACAD_REACTORS
330
42
102
}
330
42
100
AcDbScale
 70
     0
300
1-1/2" = 1'-0"
140
1.5
141
12.0
290
     0
  0
SCALE
  5
51
102
{ACAD_REACTORS
330
42
102
}
330
42
100
AcDbScale
 70
     0
300
3" = 1'-0"
140
3.0
141
12.0
290
     0
  0
SCALE
  5
52
102
{ACAD_REACTORS
330
42
102
}
330
42
100
AcDbScale
 70
     0
300
6" = 1'-0"
140
6.0
141
12.0
290
     0
  0
SCALE
  5
53
102
{ACAD_REACTORS
330
42
102
}
330
42
100
AcDbScale
 70
     0
300
1'-0" = 1'-0"
140
12.0
141
12.0
290
     0
  0
ACDBSECTIONVIEWSTYLE
  5
69
102
{ACAD_XDICTIONARY
360
184
102
}
102
{ACAD_REACTORS
330
68
102
}
330
68
100
AcDbModelDocViewStyle
 70
     0
  3
Imperial24
290
     0
100
AcDbSectionViewStyle
 70
     0
 71
     0
 90
       78
 71
     1
340
55
 62
   256
 40
0.24
340
0
340
0
 62
   256
 40
0.24
300
I, O, Q, S, X, Z
 40
0.48
 90
        3
 40
0.18
 90
        1
 71
     2
340
5D
 90
       25
 62
   256
340
5D
 90
       50
 62
   256
 40
0.24
 40
0.0
 40
0.24
 71
     3
340
55
 62
   256
 40
0.24
 90
        1
 40
0.75
 90
        1
300
%<\AcVar ViewType \f "%tc1">% %<\AcVar ViewSectionStartId>%-%<\AcVar ViewSectionEndId>%\PSCALE %<\AcVar ViewScale \f "%sn">%
 71
     4
 62
   256
 62
   257
300
ANSI31
 40
1.0
 90
        0
290
     0
290
     0
 90
        6
 40
0.0
 40
1.570796326794896
 40
0.2617993877991494
 40
1.308996938995747
 40
-0.2617993877991494
 40
1.832595714594046
  0
TABLESTYLE
  5
65
102
{ACAD_XDICTIONARY
360
181
102
}
102
{ACAD_REACTORS
330
64
102
}
330
64
100
AcDbTableStyle
280
     0
  3
Standard
 70
     0
 71
     0
 40
0.06
 41
0.06
280
     0
281
     0
  7
Standard
140
0.18
170
     2
 62
     0
 63
     7
283
     0
 90
      512
 91
        0
  1

274
    -2
284
     1
 64
     0
275
    -2
285
     1
 65
     0
276
    -2
286
     1
 66
     0
277
    -2
287
     1
 67
     0
278
    -2
288
     1
 68
     0
279
    -2
289
     1
 69
     0
  7
Standard
140
0.25
170
     5
 62
     0
 63
     7
283
     0
 90
      512
 91
        0
  1

274
    -2
284
     1
 64
     0
275
    -2
285
     1
 65
     0
276
    -2
286
     1
 66
     0
277
    -2
287
     1
 67
     0
278
    -2
288
     1
 68
     0
279
    -2
289
     1
 69
     0
  7
Standard
140
0.18
170
     5
 62
     0
 63
     7
283
     0
 90
      512
 91
        0
  1

274
    -2
284
     1
 64
     0
275
    -2
285
     1
 65
     0
276
    -2
286
     1
 66
     0
277
    -2
287
     1
 67
     0
278
    -2
288
     1
 68
     0
279
    -2
289
     1
 69
     0
  0
VISUALSTYLE
  5
2F
102
{ACAD_REACTORS
330
29
102
}
330
29
100
AcDbVisualStyle
  2
2dWireframe
 70
     4
177
     3
291
     0
 70
    58
 90
        0
176
     1
 90
        2
176
     1
 90
        0
176
     1
 90
        0
176
     1
 40
0.6
176
     1
 40
30.0
176
     1
 62
     7
420
 16777215
176
     1
 90
        1
176
     1
 90
        4
176
     1
 62
     7
176
     1
 62
   257
176
     1
 90
        1
176
     1
 90
        1
176
     1
 40
1.0
176
     1
 90
        0
176
     1
 62
   257
176
     1
 40
1.0
176
     1
 90
        1
176
     1
 90
        6
176
     1
 90
        2
176
     1
 62
     7
176
     1
 90
        5
176
     1
 90
        0
176
     1
 90
        0
176
     1
290
     0
176
     1
 90
        1
176
     1
 40
0.0
176
     1
 90
        0
176
     1
290
     1
176
     1
290
     1
176
     1
290
     0
176
     1
290
     0
176
     1
290
     0
176
     1
290
     0
176
     1
290
     0
176
     1
290
     0
176
     1
290
     0
176
     1
 90
       50
176
     1
 40
0.0
176
     1
 40
1.0
176
     1
 90
        0
176
     1
 62
    18
420
        0
176
     1
 90
       50
176
     1
 90
        3
176
     1
 62
     5
420
      255
176
     1
290
     0
176
     1
 90
       50
176
     1
 90
       50
176
     1
 90
       50
176
     1
290
     0
176
     1
 90
       50
176
     1
 62
   256
176
     0
 40
1.0
176
     0
 90
        2
176
     1
  1
strokes_ogs.tif
176
     1
290
     0
176
     1
 40
1.0
176
     1
 40
1.0
176
     1
1001
ACAD
1000
AcDbSavedByObjectVersion
1070
     0
  0
VISUALSTYLE
  5
2E
102
{ACAD_REACTORS
330
29
102
}
330
29
100
AcDbVisualStyle
  2
Basic
 70
     7
177
     3
291
     1
 70
    58
 90
        1
176
     1
 90
        0
176
     1
 90
        1
176
     1
 90
        0
176
     1
 40
0.6
176
     1
 40
30.0
176
     1
 62
     7
420
 16777215
176
     1
 90
        0
176
     1
 90
        4
176
     1
 62
     7
176
     1
 62
   257
176
     1
 90
        1
176
     1
 90
        1
176
     1
 40
1.0
176
     1
 90
        8
176
     1
 62
     7
176
     1
 40
1.0
176
     1
 90
        1
176
     1
 90
        6
176
     1
 90
        2
176
     1
 62
     7
176
     1
 90
        5
176
     1
 90
        0
176
     1
 90
        0
176
     1
290
     0
176
     1
 90
        1
176
     1
 40
0.0
176
     1
 90
        0
176
     1
290
     0
176
     1
290
     1
176
     1
290
     1
176
     1
290
     0
176
     1
290
     0
176
     1
290
     0
176
     1
290
     0
176
     1
290
     0
176
     1
290
     0
176
     1
 90
       50
176
     1
 40
0.0
176
     1
 40
1.0
176
     1
 90
        0
176
     1
 62
    18
420
        0
176
     1
 90
       50
176
     1
 90
        3
176
     1
 62
     5
420
      255
176
     1
290
     0
176
     1
 90
       50
176
     1
 90
       50
176
     1
 90
       50
176
     1
290
     0
176
     1
 90
       50
176
     1
 62
   256
176
     0
 40
1.0
176
     0
 90
        2
176
     1
  1
strokes_ogs.tif
176
     1
290
     0
176
     1
 40
1.0
176
     1
 40
1.0
176
     1
1001
ACAD
1000
AcDbSavedByObjectVersion
1070
     0
  0
VISUALSTYLE
  5
35
102
{ACAD_REACTORS
330
29
102
}
330
29
100
AcDbVisualStyle
  2
Brighten
 70
    12
177
     3
291
     1
 70
    58
 90
        2
176
     1
 90
        2
176
     1
 90
        0
176
     1
 90
        0
176
     1
 40
0.6
176
     1
 40
30.0
176
     1
 62
     7
420
 16777215
176
     1
 90
        1
176
     1
 90
        4
176
     1
 62
     7
176
     1
 62
   257
176
     1
 90
        1
176
     1
 90
        1
176
     1
 40
1.0
176
     1
 90
        8
176
     1
 62
     7
176
     1
 40
1.0
176
     1
 90
        1
176
     1
 90
        6
176
     1
 90
        2
176
     1
 62
     7
176
     1
 90
        5
176
     1
 90
        0
176
     1
 90
        0
176
     1
290
     0
176
     1
 90
        1
176
     1
 40
50.0
176
     1
 90
        0
176
     1
290
     0
176
     1
290
     1
176
     1
290
     1
176
     1
290
     0
176
     1
290
     0
176
     1
290
     0
176
     1
290
     0
176
     1
290
     0
176
     1
290
     0
176
     1
 90
       50
176
     1
 40
0.0
176
     1
 40
1.0
176
     1
 90
        0
176
     1
 62
    18
420
        0
176
     1
 90
       50
176
     1
 90
        3
176
     1
 62
     5
420
      255
176
     1
290
     0
176
     1
 90
       50
176
     1
 90
       50
176
     1
 90
       50
176
     1
290
     0
176
     1
 90
       50
176
     1
 62
   256
176
     0
 40
1.0
176
     0
 90
        2
176
     1
  1
strokes_ogs.tif
176
     1
290
     0
176
     1
 40
1.0
176
     1
 40
1.0
176
     1
1001
ACAD
1000
AcDbSavedByObjectVersion
1070
     0
  0
VISUALSTYLE
  5
39
102
{ACAD_REACTORS
330
29
102
}
330
29
100
AcDbVisualStyle
  2
ColorChange
 70
    16
177
     3
291
     1
 70
    58
 90
        2
176
     1
 90
        2
176
     1
 90
        3
176
     1
 90
        0
176
     1
 40
0.6
176
     1
 40
30.0
176
     1
 62
     8
420
  8421504
176
     1
 90
        1
176
     1
 90
        4
176
     1
 62
     7
176
     1
 62
   257
176
     1
 90
        1
176
     1
 90
        1
176
     1
 40
1.0
176
     1
 90
        8
176
     1
 62
     8
420
  8421504
176
     1
 40
1.0
176
     1
 90
        1
176
     1
 90
        6
176
     1
 90
        2
176
     1
 62
     7
176
     1
 90
        5
176
     1
 90
        0
176
     1
 90
        0
176
     1
290
     0
176
     1
 90
        1
176
     1
 40
0.0
176
     1
 90
        0
176
     1
290
     0
176
     1
290
     1
176
     1
290
     1
176
     1
290
     0
176
     1
290
     0
176
     1
290
     0
176
     1
290
     0
176
     1
290
     0
176
     1
290
     0
176
     1
 90
       50
176
     1
 40
0.0
176
     1
 40
1.0
176
     1
 90
        0
176
     1
 62
    18
420
        0
176
     1
 90
       50
176
     1
 90
        3
176
     1
 62
     5
420
      255
176
     1
290
     0
176
     1
 90
       50
176
     1
 90
       50
176
     1
 90
       50
176
     1
290
     0
176
     1
 90
       50
176
     1
 62
   256
176
     0
 40
1.0
176
     0
 90
        2
176
     1
  1
strokes_ogs.tif
176
     1
290
     0
176
     1
 40
1.0
176
     1
 40
1.0
176
     1
1001
ACAD
1000
AcDbSavedByObjectVersion
1070
     0
  0
VISUALSTYLE
  5
32
102
{ACAD_REACTORS
330
29
102
}
330
29
100
AcDbVisualStyle
  2
Conceptual
 70
     9
177
     3
291
     0
 70
    58
 90
        3
176
     1
 90
        2
176
     1
 90
        0
176
     1
 90
        0
176
     1
 40
0.6
176
     1
 40
30.0
176
     1
 62
     7
420
 16777215
176
     1
 90
        2
176
     1
 90
        2
176
     1
 62
     7
176
     1
 62
   257
176
     1
 90
        1
176
     1
 90
        1
176
     1
 40
179.0
176
     1
 90
        8
176
     1
 62
     7
176
     1
 40
1.0
176
     1
 90
        1
176
     1
 90
        6
176
     1
 90
        2
176
     1
 62
     7
176
     1
 90
        3
176
     1
 90
        0
176
     1
 90
        0
176
     1
290
     0
176
     1
 90
        1
176
     1
 40
0.0
176
     1
 90
        0
176
     1
290
     0
176
     1
290
     1
176
     1
290
     1
176
     1
290
     0
176
     1
290
     0
176
     1
290
     0
176
     1
290
     0
176
     1
290
     0
176
     1
290
     0
176
     1
 90
       50
176
     1
 40
0.0
176
     1
 40
1.0
176
     1
 90
        0
176
     1
 62
    18
420
        0
176
     1
 90
       50
176
     1
 90
        3
176
     1
 62
     5
420
      255
176
     1
290
     0
176
     1
 90
       50
176
     1
 90
       50
176
     1
 90
       50
176
     1
290
     0
176
     1
 90
       50
176
     1
 62
   256
176
     0
 40
1.0
176
     0
 90
        2
176
     1
  1
strokes_ogs.tif
176
     1
290
     0
176
     1
 40
1.0
176
     1
 40
1.0
176
     1
1001
ACAD
1000
AcDbSavedByObjectVersion
1070
     0
  0
VISUALSTYLE
  5
34
102
{ACAD_REACTORS
330
29
102
}
330
29
100
AcDbVisualStyle
  2
Dim
 70
    11
177
     3
291
     1
 70
    58
 90
        2
176
     1
 90
        2
176
     1
 90
        0
176
     1
 90
        0
176
     1
 40
0.6
176
     1
 40
30.0
176
     1
 62
     7
420
 16777215
176
     1
 90
        1
176
     1
 90
        4
176
     1
 62
     7
176
     1
 62
   257
176
     1
 90
        1
176
     1
 90
        1
176
     1
 40
1.0
176
     1
 90
        8
176
     1
 62
     7
176
     1
 40
1.0
176
     1
 90
        1
176
     1
 90
        6
176
     1
 90
        2
176
     1
 62
     7
176
     1
 90
        5
176
     1
 90
        0
176
     1
 90
        0
176
     1
290
     0
176
     1
 90
        1
176
     1
 40
-50.0
176
     1
 90
        0
176
     1
290
     0
176
     1
290
     1
176
     1
290
     1
176
     1
290
     0
176
     1
290
     0
176
     1
290
     0
176
     1
290
     0
176
     1
290
     0
176
     1
290
     0
176
     1
 90
       50
176
     1
 40
0.0
176
     1
 40
1.0
176
     1
 90
        0
176
     1
 62
    18
420
        0
176
     1
 90
       50
176
     1
 90
        3
176
     1
 62
     5
420
      255
176
     1
290
     0
176
     1
 90
       50
176
     1
 90
       50
176
     1
 90
       50
176
     1
290
     0
176
     1
 90
       50
176
     1
 62
   256
176
     0
 40
1.0
176
     0
 90
        2
176
     1
  1
strokes_ogs.tif
176
     1
290
     0
176
     1
 40
1.0
176
     1
 40
1.0
176
     1
1001
ACAD
1000
AcDbSavedByObjectVersion
1070
     0
  0
VISUALSTYLE
  5
41
102
{ACAD_REACTORS
330
29
102
}
330
29
100
AcDbVisualStyle
  2
EdgeColorOff
 70
    22
177
     3
291
     1
 70
    58
 90
        2
176
     0
 90
        2
176
     0
 90
        0
176
     0
 90
        0
176
     0
 40
0.6
176
     0
 40
30.0
176
     0
 62
     7
420
 16777215
176
     0
 90
        1
176
     0
 90
        4
176
     0
 62
     7
176
     0
 62
   257
176
     0
 90
        1
176
     0
 90
        1
176
     0
 40
1.0
176
     0
 90
        8
176
     2
 62
     7
176
     0
 40
1.0
176
     0
 90
        1
176
     0
 90
        6
176
     0
 90
        2
176
     0
 62
     7
176
     0
 90
        5
176
     0
 90
        0
176
     0
 90
        0
176
     0
290
     0
176
     0
 90
        1
176
     0
 40
0.0
176
     0
 90
        0
176
     0
290
     0
176
     0
290
     1
176
     0
290
     1
176
     0
290
     0
176
     0
290
     0
176
     0
290
     0
176
     0
290
     0
176
     0
290
     0
176
     0
290
     0
176
     0
 90
       50
176
     0
 40
0.0
176
     0
 40
1.0
176
     0
 90
        0
176
     0
 62
    18
420
        0
176
     0
 90
       50
176
     0
 90
        3
176
     0
 62
     5
420
      255
176
     0
290
     0
176
     0
 90
       50
176
     0
 90
       50
176
     0
 90
       50
176
     0
290
     0
176
     0
 90
       50
176
     0
 62
   256
176
     0
 40
1.0
176
     0
 90
        2
176
     0
  1
strokes_ogs.tif
176
     0
290
     0
176
     0
 40
1.0
176
     0
 40
1.0
176
     0
1001
ACAD
1000
AcDbSavedByObjectVersion
1070
     0
  0
VISUALSTYLE
  5
38
102
{ACAD_REACTORS
330
29
102
}
330
29
100
AcDbVisualStyle
  2
Facepattern
 70
    15
177
     3
291
     1
 70
    58
 90
        2
176
     1
 90
        2
176
     1
 90
        0
176
     1
 90
        0
176
     1
 40
0.6
176
     1
 40
30.0
176
     1
 62
     7
420
 16777215
176
     1
 90
        1
176
     1
 90
        4
176
     1
 62
     7
176
     1
 62
   257
176
     1
 90
        1
176
     1
 90
        1
176
     1
 40
1.0
176
     1
 90
        8
176
     1
 62
     7
176
     1
 40
1.0
176
     1
 90
        1
176
     1
 90
        6
176
     1
 90
        2
176
     1
 62
     7
176
     1
 90
        5
176
     1
 90
        0
176
     1
 90
        0
176
     1
290
     0
176
     1
 90
        1
176
     1
 40
0.0
176
     1
 90
        0
176
     1
290
     0
176
     1
290
     1
176
     1
290
     1
176
     1
290
     0
176
     1
290
     0
176
     1
290
     0
176
     1
290
     0
176
     1
290
     0
176
     1
290
     0
176
     1
 90
       50
176
     1
 40
0.0
176
     1
 40
1.0
176
     1
 90
        0
176
     1
 62
    18
420
        0
176
     1
 90
       50
176
     1
 90
        3
176
     1
 62
     5
420
      255
176
     1
290
     0
176
     1
 90
       50
176
     1
 90
       50
176
     1
 90
       50
176
     1
290
     0
176
     1
 90
       50
176
     1
 62
   256
176
     0
 40
1.0
176
     0
 90
        2
176
     1
  1
strokes_ogs.tif
176
     1
290
     0
176
     1
 40
1.0
176
     1
 40
1.0
176
     1
1001
ACAD
1000
AcDbSavedByObjectVersion
1070
     0
  0
VISUALSTYLE
  5
2A
102
{ACAD_REACTORS
330
29
102
}
330
29
100
AcDbVisualStyle
  2
Flat
 70
     0
177
     3
291
     1
 70
    58
 90
        2
176
     1
 90
        1
176
     1
 90
        1
176
     1
 90
        2
176
     1
 40
0.6
176
     1
 40
30.0
176
     1
 62
     7
420
 16777215
176
     1
 90
        0
176
     1
 90
        0
176
     1
 62
     7
176
     1
 62
   257
176
     1
 90
        1
176
     1
 90
        1
176
     1
 40
1.0
176
     1
 90
        8
176
     1
 62
     7
176
     1
 40
1.0
176
     1
 90
        1
176
     1
 90
        6
176
     1
 90
        2
176
     1
 62
     7
176
     1
 90
        5
176
     1
 90
        0
176
     1
 90
        0
176
     1
290
     0
176
     1
 90
       13
176
     1
 40
0.0
176
     1
 90
        0
176
     1
290
     0
176
     1
290
     1
176
     1
290
     1
176
     1
290
     0
176
     1
290
     0
176
     1
290
     0
176
     1
290
     0
176
     1
290
     0
176
     1
290
     0
176
     1
 90
       50
176
     1
 40
0.0
176
     1
 40
1.0
176
     1
 90
        0
176
     1
 62
    18
420
        0
176
     1
 90
       50
176
     1
 90
        3
176
     1
 62
     5
420
      255
176
     1
290
     0
176
     1
 90
       50
176
     1
 90
       50
176
     1
 90
       50
176
     1
290
     0
176
     1
 90
       50
176
     1
 62
   256
176
     0
 40
1.0
176
     0
 90
        2
176
     1
  1
strokes_ogs.tif
176
     1
290
     0
176
     1
 40
1.0
176
     1
 40
1.0
176
     1
1001
ACAD
1000
AcDbSavedByObjectVersion
1070
     0
  0
VISUALSTYLE
  5
2B
102
{ACAD_REACTORS
330
29
102
}
330
29
100
AcDbVisualStyle
  2
FlatWithEdges
 70
     1
177
     3
291
     1
 70
    58
 90
        2
176
     1
 90
        1
176
     1
 90
        1
176
     1
 90
        2
176
     1
 40
0.6
176
     1
 40
30.0
176
     1
 62
     7
420
 16777215
176
     1
 90
        1
176
     1
 90
        0
176
     1
 62
     7
176
     1
 62
   257
176
     1
 90
        1
176
     1
 90
        1
176
     1
 40
1.0
176
     1
 90
        0
176
     1
 62
   257
176
     1
 40
1.0
176
     1
 90
        1
176
     1
 90
        6
176
     1
 90
        2
176
     1
 62
     7
176
     1
 90
        5
176
     1
 90
        0
176
     1
 90
        0
176
     1
290
     0
176
     1
 90
       13
176
     1
 40
0.0
176
     1
 90
        0
176
     1
290
     0
176
     1
290
     1
176
     1
290
     1
176
     1
290
     0
176
     1
290
     0
176
     1
290
     0
176
     1
290
     0
176
     1
290
     0
176
     1
290
     0
176
     1
 90
       50
176
     1
 40
0.0
176
     1
 40
1.0
176
     1
 90
        0
176
     1
 62
    18
420
        0
176
     1
 90
       50
176
     1
 90
        3
176
     1
 62
     5
420
      255
176
     1
290
     0
176
     1
 90
       50
176
     1
 90
       50
176
     1
 90
       50
176
     1
290
     0
176
     1
 90
       50
176
     1
 62
   256
176
     0
 40
1.0
176
     0
 90
        2
176
     1
  1
strokes_ogs.tif
176
     1
290
     0
176
     1
 40
1.0
176
     1
 40
1.0
176
     1
1001
ACAD
1000
AcDbSavedByObjectVersion
1070
     0
  0
VISUALSTYLE
  5
2C
102
{ACAD_REACTORS
330
29
102
}
330
29
100
AcDbVisualStyle
  2
Gouraud
 70
     2
177
     3
291
     1
 70
    58
 90
        2
176
     1
 90
        2
176
     1
 90
        1
176
     1
 90
        2
176
     1
 40
0.6
176
     1
 40
30.0
176
     1
 62
     7
420
 16777215
176
     1
 90
        0
176
     1
 90
        0
176
     1
 62
     7
176
     1
 62
   257
176
     1
 90
        1
176
     1
 90
        1
176
     1
 40
1.0
176
     1
 90
        0
176
     1
 62
     7
176
     1
 40
1.0
176
     1
 90
        1
176
     1
 90
        6
176
     1
 90
        2
176
     1
 62
     7
176
     1
 90
        5
176
     1
 90
        0
176
     1
 90
        0
176
     1
290
     0
176
     1
 90
       13
176
     1
 40
0.0
176
     1
 90
        0
176
     1
290
     0
176
     1
290
     1
176
     1
290
     1
176
     1
290
     0
176
     1
290
     0
176
     1
290
     0
176
     1
290
     0
176
     1
290
     0
176
     1
290
     0
176
     1
 90
       50
176
     1
 40
0.0
176
     1
 40
1.0
176
     1
 90
        0
176
     1
 62
    18
420
        0
176
     1
 90
       50
176
     1
 90
        3
176
     1
 62
     5
420
      255
176
     1
290
     0
176
     1
 90
       50
176
     1
 90
       50
176
     1
 90
       50
176
     1
290
     0
176
     1
 90
       50
176
     1
 62
   256
176
     0
 40
1.0
176
     0
 90
        2
176
     1
  1
strokes_ogs.tif
176
     1
290
     0
176
     1
 40
1.0
176
     1
 40
1.0
176
     1
1001
ACAD
1000
AcDbSavedByObjectVersion
1070
     0
  0
VISUALSTYLE
  5
2D
102
{ACAD_REACTORS
330
29
102
}
330
29
100
AcDbVisualStyle
  2
GouraudWithEdges
 70
     3
177
     3
291
     1
 70
    58
 90
        2
176
     1
 90
        2
176
     1
 90
        1
176
     1
 90
        2
176
     1
 40
0.6
176
     1
 40
30.0
176
     1
 62
     7
420
 16777215
176
     1
 90
        1
176
     1
 90
        0
176
     1
 62
     7
176
     1
 62
   257
176
     1
 90
        1
176
     1
 90
        1
176
     1
 40
1.0
176
     1
 90
        0
176
     1
 62
   257
176
     1
 40
1.0
176
     1
 90
        1
176
     1
 90
        6
176
     1
 90
        2
176
     1
 62
     7
176
     1
 90
        5
176
     1
 90
        0
176
     1
 90
        0
176
     1
290
     0
176
     1
 90
       13
176
     1
 40
0.0
176
     1
 90
        0
176
     1
290
     0
176
     1
290
     1
176
     1
290
     1
176
     1
290
     0
176
     1
290
     0
176
     1
290
     0
176
     1
290
     0
176
     1
290
     0
176
     1
290
     0
176
     1
 90
       50
176
     1
 40
0.0
176
     1
 40
1.0
176
     1
 90
        0
176
     1
 62
    18
420
        0
176
     1
 90
       50
176
     1
 90
        3
176
     1
 62
     5
420
      255
176
     1
290
     0
176
     1
 90
       50
176
     1
 90
       50
176
     1
 90
       50
176
     1
290
     0
176
     1
 90
       50
176
     1
 62
   256
176
     0
 40
1.0
176
     0
 90
        2
176
     1
  1
strokes_ogs.tif
176
     1
290
     0
176
     1
 40
1.0
176
     1
 40
1.0
176
     1
1001
ACAD
1000
AcDbSavedByObjectVersion
1070
     0
  0
VISUALSTYLE
  5
31
102
{ACAD_REACTORS
330
29
102
}
330
29
100
AcDbVisualStyle
  2
Hidden
 70
     6
177
     3
291
     0
 70
    58
 90
        1
176
     1
 90
        2
176
     1
 90
        2
176
     1
 90
        0
176
     1
 40
0.6
176
     1
 40
30.0
176
     1
 62
     7
420
 16777215
176
     1
 90
        2
176
     1
 90
        2
176
     1
 62
     7
176
     1
 62
   257
176
     1
 90
        2
176
     1
 90
        1
176
     1
 40
40.0
176
     1
 90
        0
176
     1
 62
   257
176
     1
 40
1.0
176
     1
 90
        1
176
     1
 90
        6
176
     1
 90
        2
176
     1
 62
     7
176
     1
 90
        3
176
     1
 90
        0
176
     1
 90
        0
176
     1
290
     0
176
     1
 90
        1
176
     1
 40
0.0
176
     1
 90
        0
176
     1
290
     0
176
     1
290
     1
176
     1
290
     1
176
     1
290
     0
176
     1
290
     0
176
     1
290
     0
176
     1
290
     0
176
     1
290
     0
176
     1
290
     0
176
     1
 90
       50
176
     1
 40
0.0
176
     1
 40
1.0
176
     1
 90
        0
176
     1
 62
    18
420
        0
176
     1
 90
       50
176
     1
 90
        3
176
     1
 62
     5
420
      255
176
     1
290
     0
176
     1
 90
       50
176
     1
 90
       50
176
     1
 90
       50
176
     1
290
     0
176
     1
 90
       50
176
     1
 62
   256
176
     0
 40
1.0
176
     0
 90
        2
176
     1
  1
strokes_ogs.tif
176
     1
290
     0
176
     1
 40
1.0
176
     1
 40
1.0
176
     1
1001
ACAD
1000
AcDbSavedByObjectVersion
1070
     0
  0
VISUALSTYLE
  5
3F
102
{ACAD_REACTORS
330
29
102
}
330
29
100
AcDbVisualStyle
  2
JitterOff
 70
    20
177
     3
291
     1
 70
    58
 90
        2
176
     0
 90
        2
176
     0
 90
        0
176
     0
 90
        0
176
     0
 40
0.6
176
     0
 40
30.0
176
     0
 62
     7
420
 16777215
176
     0
 90
        1
176
     0
 90
        4
176
     0
 62
     7
176
     0
 62
   257
176
     0
 90
        1
176
     0
 90
        1
176
     0
 40
1.0
176
     0
 90
       10
176
     2
 62
     7
176
     0
 40
1.0
176
     0
 90
        1
176
     0
 90
        6
176
     0
 90
        2
176
     0
 62
     7
176
     0
 90
        5
176
     0
 90
        0
176
     0
 90
        0
176
     0
290
     0
176
     0
 90
        1
176
     0
 40
0.0
176
     0
 90
        0
176
     0
290
     0
176
     0
290
     1
176
     0
290
     1
176
     0
290
     0
176
     0
290
     0
176
     0
290
     0
176
     0
290
     0
176
     0
290
     0
176
     0
290
     0
176
     0
 90
       50
176
     0
 40
0.0
176
     0
 40
1.0
176
     0
 90
        0
176
     0
 62
    18
420
        0
176
     0
 90
       50
176
     0
 90
        3
176
     0
 62
     5
420
      255
176
     0
290
     0
176
     0
 90
       50
176
     0
 90
       50
176
     0
 90
       50
176
     0
290
     0
176
     0
 90
       50
176
     0
 62
   256
176
     0
 40
1.0
176
     0
 90
        2
176
     0
  1
strokes_ogs.tif
176
     0
290
     0
176
     0
 40
1.0
176
     0
 40
1.0
176
     0
1001
ACAD
1000
AcDbSavedByObjectVersion
1070
     0
  0
VISUALSTYLE
  5
37
102
{ACAD_REACTORS
330
29
102
}
330
29
100
AcDbVisualStyle
  2
Linepattern
 70
    14
177
     3
291
     1
 70
    58
 90
        2
176
     1
 90
        2
176
     1
 90
        0
176
     1
 90
        0
176
     1
 40
0.6
176
     1
 40
30.0
176
     1
 62
     7
420
 16777215
176
     1
 90
        1
176
     1
 90
        4
176
     1
 62
     7
176
     1
 62
   257
176
     1
 90
        7
176
     1
 90
        7
176
     1
 40
1.0
176
     1
 90
        8
176
     1
 62
     7
176
     1
 40
1.0
176
     1
 90
        1
176
     1
 90
        6
176
     1
 90
        2
176
     1
 62
     7
176
     1
 90
        5
176
     1
 90
        0
176
     1
 90
        0
176
     1
290
     0
176
     1
 90
        1
176
     1
 40
0.0
176
     1
 90
        0
176
     1
290
     0
176
     1
290
     1
176
     1
290
     1
176
     1
290
     0
176
     1
290
     0
176
     1
290
     0
176
     1
290
     0
176
     1
290
     0
176
     1
290
     0
176
     1
 90
       50
176
     1
 40
0.0
176
     1
 40
1.0
176
     1
 90
        0
176
     1
 62
    18
420
        0
176
     1
 90
       50
176
     1
 90
        3
176
     1
 62
     5
420
      255
176
     1
290
     0
176
     1
 90
       50
176
     1
 90
       50
176
     1
 90
       50
176
     1
290
     0
176
     1
 90
       50
176
     1
 62
   256
176
     0
 40
1.0
176
     0
 90
        2
176
     1
  1
strokes_ogs.tif
176
     1
290
     0
176
     1
 40
1.0
176
     1
 40
1.0
176
     1
1001
ACAD
1000
AcDbSavedByObjectVersion
1070
     0
  0
VISUALSTYLE
  5
40
102
{ACAD_REACTORS
330
29
102
}
330
29
100
AcDbVisualStyle
  2
OverhangOff
 70
    21
177
     3
291
     1
 70
    58
 90
        2
176
     0
 90
        2
176
     0
 90
        0
176
     0
 90
        0
176
     0
 40
0.6
176
     0
 40
30.0
176
     0
 62
     7
420
 16777215
176
     0
 90
        1
176
     0
 90
        4
176
     0
 62
     7
176
     0
 62
   257
176
     0
 90
        1
176
     0
 90
        1
176
     0
 40
1.0
176
     0
 90
        9
176
     2
 62
     7
176
     0
 40
1.0
176
     0
 90
        1
176
     0
 90
        6
176
     0
 90
        2
176
     0
 62
     7
176
     0
 90
        5
176
     0
 90
        0
176
     0
 90
        0
176
     0
290
     0
176
     0
 90
        1
176
     0
 40
0.0
176
     0
 90
        0
176
     0
290
     0
176
     0
290
     1
176
     0
290
     1
176
     0
290
     0
176
     0
290
     0
176
     0
290
     0
176
     0
290
     0
176
     0
290
     0
176
     0
290
     0
176
     0
 90
       50
176
     0
 40
0.0
176
     0
 40
1.0
176
     0
 90
        0
176
     0
 62
    18
420
        0
176
     0
 90
       50
176
     0
 90
        3
176
     0
 62
     5
420
      255
176
     0
290
     0
176
     0
 90
       50
176
     0
 90
       50
176
     0
 90
       50
176
     0
290
     0
176
     0
 90
       50
176
     0
 62
   256
176
     0
 40
1.0
176
     0
 90
        2
176
     0
  1
strokes_ogs.tif
176
     0
290
     0
176
     0
 40
1.0
176
     0
 40
1.0
176
     0
1001
ACAD
1000
AcDbSavedByObjectVersion
1070
     0
  0
VISUALSTYLE
  5
33
102
{ACAD_REACTORS
330
29
102
}
330
29
100
AcDbVisualStyle
  2
Realistic
 70
     8
177
     3
291
     0
 70
    58
 90
        2
176
     1
 90
        3
176
     1
 90
        0
176
     1
 90
        2
176
     1
 40
0.6
176
     1
 40
30.0
176
     1
 62
     7
420
 16777215
176
     1
 90
        0
176
     1
 90
        0
176
     1
 62
     7
176
     1
 62
   257
176
     1
 90
        1
176
     1
 90
        1
176
     1
 40
1.0
176
     1
 90
        8
176
     1
 62
   257
176
     1
 40
1.0
176
     1
 90
        1
176
     1
 90
        6
176
     1
 90
        2
176
     1
 62
     7
176
     1
 90
        3
176
     1
 90
        0
176
     1
 90
        0
176
     1
290
     0
176
     1
 90
       13
176
     1
 40
0.0
176
     1
 90
        0
176
     1
290
     0
176
     1
290
     1
176
     1
290
     1
176
     1
290
     0
176
     1
290
     0
176
     1
290
     0
176
     1
290
     0
176
     1
290
     0
176
     1
290
     0
176
     1
 90
       50
176
     1
 40
0.0
176
     1
 40
1.0
176
     1
 90
        0
176
     1
 62
    18
420
        0
176
     1
 90
       50
176
     1
 90
        3
176
     1
 62
     5
420
      255
176
     1
290
     0
176
     1
 90
       50
176
     1
 90
       50
176
     1
 90
       50
176
     1
290
     0
176
     1
 90
       50
176
     1
 62
   256
176
     0
 40
1.0
176
     0
 90
        2
176
     1
  1
strokes_ogs.tif
176
     1
290
     0
176
     1
 40
1.0
176
     1
 40
1.0
176
     1
1001
ACAD
1000
AcDbSavedByObjectVersion
1070
     0
  0
VISUALSTYLE
  5
3E
102
{ACAD_REACTORS
330
29
102
}
330
29
100
AcDbVisualStyle
  2
Shaded
 70
    27
177
     3
291
     0
 70
    58
 90
        2
176
     1
 90
        2
176
     1
 90
        1
176
     1
 90
        2
176
     1
 40
0.6
176
     1
 40
30.0
176
     1
 62
     7
420
 16777215
176
     1
 90
        0
176
     1
 90
        4
176
     1
 62
     7
176
     1
 62
   257
176
     1
 90
        1
176
     1
 90
        1
176
     1
 40
1.0
176
     1
 90
        8
176
     1
 62
   257
176
     1
 40
1.0
176
     1
 90
        1
176
     1
 90
        6
176
     1
 90
        2
176
     1
 62
     8
420
  7895160
176
     1
 90
        3
176
     1
 90
        0
176
     1
 90
        0
176
     1
290
     0
176
     1
 90
        5
176
     1
 40
0.0
176
     1
 90
        0
176
     1
290
     0
176
     1
290
     1
176
     1
290
     1
176
     1
290
     0
176
     1
290
     0
176
     1
290
     0
176
     1
290
     0
176
     1
290
     0
176
     1
290
     0
176
     1
 90
       50
176
     1
 40
0.0
176
     1
 40
1.0
176
     1
 90
        0
176
     1
 62
    18
420
        0
176
     1
 90
       50
176
     1
 90
        3
176
     1
 62
     5
420
      255
176
     1
290
     0
176
     1
 90
       50
176
     1
 90
       50
176
     1
 90
       50
176
     1
290
     0
176
     1
 90
       50
176
     1
 62
   256
176
     0
 40
1.0
176
     0
 90
        2
176
     1
  1
strokes_ogs.tif
176
     1
290
     0
176
     1
 40
1.0
176
     1
 40
1.0
176
     1
1001
ACAD
1000
AcDbSavedByObjectVersion
1070
     0
  0
VISUALSTYLE
  5
3D
102
{ACAD_REACTORS
330
29
102
}
330
29
100
AcDbVisualStyle
  2
Shaded with edges
 70
    26
177
     3
291
     0
 70
    58
 90
        2
176
     1
 90
        2
176
     1
 90
        1
176
     1
 90
        2
176
     1
 40
0.6
176
     1
 40
30.0
176
     1
 62
     7
420
 16777215
176
     1
 90
        1
176
     1
 90
        2
176
     1
 62
     7
176
     1
 62
   257
176
     1
 90
        2
176
     1
 90
        1
176
     1
 40
1.0
176
     1
 90
        8
176
     1
 62
   257
176
     1
 40
1.0
176
     1
 90
        1
176
     1
 90
        6
176
     1
 90
        2
176
     1
 62
     7
176
     1
 90
        3
176
     1
 90
        0
176
     1
 90
        0
176
     1
290
     0
176
     1
 90
        5
176
     1
 40
0.0
176
     1
 90
        0
176
     1
290
     0
176
     1
290
     1
176
     1
290
     1
176
     1
290
     0
176
     1
290
     0
176
     1
290
     0
176
     1
290
     0
176
     1
290
     0
176
     1
290
     0
176
     1
 90
       50
176
     1
 40
0.0
176
     1
 40
1.0
176
     1
 90
        0
176
     1
 62
    18
420
        0
176
     1
 90
       50
176
     1
 90
        3
176
     1
 62
     5
420
      255
176
     1
290
     0
176
     1
 90
       50
176
     1
 90
       50
176
     1
 90
       50
176
     1
290
     0
176
     1
 90
       50
176
     1
 62
   256
176
     0
 40
1.0
176
     0
 90
        2
176
     1
  1
strokes_ogs.tif
176
     1
290
     0
176
     1
 40
1.0
176
     1
 40
1.0
176
     1
1001
ACAD
1000
AcDbSavedByObjectVersion
1070
     0
  0
VISUALSTYLE
  5
3A
102
{ACAD_REACTORS
330
29
102
}
330
29
100
AcDbVisualStyle
  2
Shades of Gray
 70
    23
177
     3
291
     0
 70
    58
 90
        2
176
     1
 90
        2
176
     1
 90
        3
176
     1
 90
        0
176
     1
 40
0.6
176
     1
 40
30.0
176
     1
 62
     7
420
 16777215
176
     1
 90
        2
176
     1
 90
        2
176
     1
 62
     7
176
     1
 62
     7
176
     1
 90
        1
176
     1
 90
        1
176
     1
 40
40.0
176
     1
 90
        8
176
     1
 62
     7
176
     1
 40
1.0
176
     1
 90
        1
176
     1
 90
        6
176
     1
 90
        2
176
     1
 62
     7
176
     1
 90
        3
176
     1
 90
        0
176
     1
 90
        0
176
     1
290
     0
176
     1
 90
        1
176
     1
 40
0.0
176
     1
 90
        0
176
     1
290
     0
176
     1
290
     1
176
     1
290
     1
176
     1
290
     0
176
     1
290
     0
176
     1
290
     0
176
     1
290
     0
176
     1
290
     0
176
     1
290
     0
176
     1
 90
       50
176
     1
 40
0.0
176
     1
 40
1.0
176
     1
 90
        0
176
     1
 62
    18
420
        0
176
     1
 90
       50
176
     1
 90
        3
176
     1
 62
     5
420
      255
176
     1
290
     0
176
     1
 90
       50
176
     1
 90
       50
176
     1
 90
       50
176
     1
290
     0
176
     1
 90
       50
176
     1
 62
   256
176
     0
 40
1.0
176
     0
 90
        2
176
     1
  1
strokes_ogs.tif
176
     1
290
     0
176
     1
 40
1.0
176
     1
 40
1.0
176
     1
1001
ACAD
1000
AcDbSavedByObjectVersion
1070
     0
  0
VISUALSTYLE
  5
3B
102
{ACAD_REACTORS
330
29
102
}
330
29
100
AcDbVisualStyle
  2
Sketchy
 70
    24
177
     3
291
     0
 70
    58
 90
        1
176
     1
 90
        2
176
     1
 90
        2
176
     1
 90
        0
176
     1
 40
0.6
176
     1
 40
30.0
176
     1
 62
     7
420
 16777215
176
     1
 90
        2
176
     1
 90
        2
176
     1
 62
     7
176
     1
 62
     7
176
     1
 90
        1
176
     1
 90
        1
176
     1
 40
40.0
176
     1
 90
       11
176
     1
 62
     7
176
     1
 40
1.0
176
     1
 90
        1
176
     1
 90
        6
176
     1
 90
        2
176
     1
 62
     7
176
     1
 90
        6
176
     1
 90
        0
176
     1
 90
        0
176
     1
290
     0
176
     1
 90
        1
176
     1
 40
0.0
176
     1
 90
        0
176
     1
290
     0
176
     1
290
     1
176
     1
290
     1
176
     1
290
     0
176
     1
290
     0
176
     1
290
     0
176
     1
290
     0
176
     1
290
     0
176
     1
290
     0
176
     1
 90
       50
176
     1
 40
0.0
176
     1
 40
1.0
176
     1
 90
        0
176
     1
 62
    18
420
        0
176
     1
 90
       50
176
     1
 90
        3
176
     1
 62
     5
420
      255
176
     1
290
     0
176
     1
 90
       50
176
     1
 90
       50
176
     1
 90
       50
176
     1
290
     0
176
     1
 90
       50
176
     1
 62
   256
176
     0
 40
1.0
176
     0
 90
        2
176
     1
  1
strokes_ogs.tif
176
     1
290
     0
176
     1
 40
1.0
176
     1
 40
1.0
176
     1
1001
ACAD
1000
AcDbSavedByObjectVersion
1070
     0
  0
VISUALSTYLE
  5
36
102
{ACAD_REACTORS
330
29
102
}
330
29
100
AcDbVisualStyle
  2
Thicken
 70
    13
177
     3
291
     1
 70
    58
 90
        2
176
     1
 90
        2
176
     1
 90
        0
176
     1
 90
        0
176
     1
 40
0.6
176
     1
 40
30.0
176
     1
 62
     7
420
 16777215
176
     1
 90
        1
176
     1
 90
        4
176
     1
 62
     7
176
     1
 62
   257
176
     1
 90
        1
176
     1
 90
        1
176
     1
 40
1.0
176
     1
 90
       12
176
     1
 62
     7
176
     1
 40
1.0
176
     1
 90
        1
176
     1
 90
        6
176
     1
 90
        2
176
     1
 62
     7
176
     1
 90
        5
176
     1
 90
        0
176
     1
 90
        0
176
     1
290
     0
176
     1
 90
        1
176
     1
 40
0.0
176
     1
 90
        0
176
     1
290
     0
176
     1
290
     1
176
     1
290
     1
176
     1
290
     0
176
     1
290
     0
176
     1
290
     0
176
     1
290
     0
176
     1
290
     0
176
     1
290
     0
176
     1
 90
       50
176
     1
 40
0.0
176
     1
 40
1.0
176
     1
 90
        0
176
     1
 62
    18
420
        0
176
     1
 90
       50
176
     1
 90
        3
176
     1
 62
     5
420
      255
176
     1
290
     0
176
     1
 90
       50
176
     1
 90
       50
176
     1
 90
       50
176
     1
290
     0
176
     1
 90
       50
176
     1
 62
   256
176
     0
 40
1.0
176
     0
 90
        2
176
     1
  1
strokes_ogs.tif
176
     1
290
     0
176
     1
 40
1.0
176
     1
 40
1.0
176
     1
1001
ACAD
1000
AcDbSavedByObjectVersion
1070
     0
  0
VISUALSTYLE
  5
30
102
{ACAD_REACTORS
330
29
102
}
330
29
100
AcDbVisualStyle
  2
Wireframe
 70
     5
177
     3
291
     0
 70
    58
 90
        0
176
     1
 90
        2
176
     1
 90
        0
176
     1
 90
        0
176
     1
 40
0.6
176
     1
 40
30.0
176
     1
 62
     7
420
 16777215
176
     1
 90
        1
176
     1
 90
        4
176
     1
 62
     7
176
     1
 62
   257
176
     1
 90
        1
176
     1
 90
        1
176
     1
 40
1.0
176
     1
 90
        0
176
     1
 62
   257
176
     1
 40
1.0
176
     1
 90
        1
176
     1
 90
        6
176
     1
 90
        2
176
     1
 62
     7
176
     1
 90
        3
176
     1
 90
        0
176
     1
 90
        0
176
     1
290
     0
176
     1
 90
        1
176
     1
 40
0.0
176
     1
 90
        0
176
     1
290
     0
176
     1
290
     1
176
     1
290
     1
176
     1
290
     0
176
     1
290
     0
176
     1
290
     0
176
     1
290
     0
176
     1
290
     0
176
     1
290
     0
176
     1
 90
       50
176
     1
 40
0.0
176
     1
 40
1.0
176
     1
 90
        0
176
     1
 62
    18
420
        0
176
     1
 90
       50
176
     1
 90
        3
176
     1
 62
     5
420
      255
176
     1
290
     0
176
     1
 90
       50
176
     1
 90
       50
176
     1
 90
       50
176
     1
290
     0
176
     1
 90
       50
176
     1
 62
   256
176
     0
 40
1.0
176
     0
 90
        2
176
     1
  1
strokes_ogs.tif
176
     1
290
     0
176
     1
 40
1.0
176
     1
 40
1.0
176
     1
1001
ACAD
1000
AcDbSavedByObjectVersion
1070
     0
  0
VISUALSTYLE
  5
3C
102
{ACAD_REACTORS
330
29
102
}
330
29
100
AcDbVisualStyle
  2
X-Ray
 70
    25
177
     3
291
     0
 70
    58
 90
        2
176
     1
 90
        2
176
     1
 90
        1
176
     1
 90
        1
176
     1
 40
0.5
176
     1
 40
30.0
176
     1
 62
     7
420
 16777215
176
     1
 90
        1
176
     1
 90
        0
176
     1
 62
     7
176
     1
 62
   257
176
     1
 90
        1
176
     1
 90
        1
176
     1
 40
1.0
176
     1
 90
        8
176
     1
 62
     7
176
     1
 40
1.0
176
     1
 90
        1
176
     1
 90
        6
176
     1
 90
        2
176
     1
 62
     7
176
     1
 90
        3
176
     1
 90
        0
176
     1
 90
        0
176
     1
290
     0
176
     1
 90
       13
176
     1
 40
0.0
176
     1
 90
        0
176
     1
290
     0
176
     1
290
     1
176
     1
290
     1
176
     1
290
     0
176
     1
290
     0
176
     1
290
     0
176
     1
290
     0
176
     1
290
     0
176
     1
290
     0
176
     1
 90
       50
176
     1
 40
0.0
176
     1
 40
1.0
176
     1
 90
        0
176
     1
 62
    18
420
        0
176
     1
 90
       50
176
     1
 90
        3
176
     1
 62
     5
420
      255
176
     1
290
     0
176
     1
 90
       50
176
     1
 90
       50
176
     1
 90
       50
176
     1
290
     0
176
     1
 90
       50
176
     1
 62
   256
176
     0
 40
1.0
176
     0
 90
        2
176
     1
  1
strokes_ogs.tif
176
     1
290
     0
176
     1
 40
1.0
176
     1
 40
1.0
176
     1
1001
ACAD
1000
AcDbSavedByObjectVersion
1070
     0
  0
DICTIONARYVAR
  5
180
102
{ACAD_REACTORS
330
17B
102
}
330
17B
100
DictionaryVariables
280
     0
  1
1:1
  0
DICTIONARYVAR
  5
17D
102
{ACAD_REACTORS
330
17B
102
}
330
17B
100
DictionaryVariables
280
     0
  1
STANDARD
  0
DICTIONARYVAR
  5
17C
102
{ACAD_REACTORS
330
17B
102
}
330
17B
100
DictionaryVariables
280
     0
  1
STANDARD
  0
DICTIONARYVAR
  5
17E
102
{ACAD_REACTORS
330
17B
102
}
330
17B
100
DictionaryVariables
280
     0
  1
Imperial24
  0
DICTIONARYVAR
  5
17F
102
{ACAD_REACTORS
330
17B
102
}
330
17B
100
DictionaryVariables
280
     0
  1
Imperial24
  0
DICTIONARY
  5
186
330
6B
100
AcDbDictionary
280
     1
281
     1
  3
ACAD_XREC_ROUNDTRIP
360
187
  0
DICTIONARY
  5
1A
330
19
100
AcDbDictionary
280
     1
281
     1
  3
BUMPTILE
360
1C
  3
DIFFUSETILE
360
1B
  3
OPACITYTILE
360
1F
  3
REFLECTIONTILE
360
1E
  3
REFRACTIONTILE
360
20
  3
SPECULARTILE
360
1D
  0
DICTIONARY
  5
12
330
11
100
AcDbDictionary
280
     1
281
     1
  3
BUMPTILE
360
14
  3
DIFFUSETILE
360
13
  3
OPACITYTILE
360
17
  3
REFLECTIONTILE
360
16
  3
REFRACTIONTILE
360
18
  3
SPECULARTILE
360
15
  0
DICTIONARY
  5
22
330
21
100
AcDbDictionary
280
     1
281
     1
  3
BUMPTILE
360
24
  3
DIFFUSETILE
360
23
  3
OPACITYTILE
360
27
  3
REFLECTIONTILE
360
26
  3
REFRACTIONTILE
360
28
  3
SPECULARTILE
360
25
  0
DICTIONARY
  5
184
330
69
100
AcDbDictionary
280
     1
281
     1
  3
ACAD_XREC_ROUNDTRIP
360
185
  0
DICTIONARY
  5
181
330
65
100
AcDbDictionary
280
     1
281
     1
  3
ACAD_ROUNDTRIP_2008_TABLESTYLE_CELLSTYLEMAP
360
182
  0
XRECORD
  5
187
102
{ACAD_REACTORS
330
186
102
}
330
186
100
AcDbXrecord
280
     1
102
DISPLAYNAME
  1
Imperial24
102
FLAGS
 90
        0
  0
XRECORD
  5
1C
102
{ACAD_REACTORS
330
1A
102
}
330
1A
100
AcDbXrecord
280
     1
270
     1
271
     1
  0
XRECORD
  5
1B
102
{ACAD_REACTORS
330
1A
102
}
330
1A
100
AcDbXrecord
280
     1
270
     1
271
     1
  0
XRECORD
  5
1F
102
{ACAD_REACTORS
330
1A
102
}
330
1A
100
AcDbXrecord
280
     1
270
     1
271
     1
  0
XRECORD
  5
1E
102
{ACAD_REACTORS
330
1A
102
}
330
1A
100
AcDbXrecord
280
     1
270
     1
271
     1
  0
XRECORD
  5
20
102
{ACAD_REACTORS
330
1A
102
}
330
1A
100
AcDbXrecord
280
     1
270
     1
271
     1
  0
XRECORD
  5
1D
102
{ACAD_REACTORS
330
1A
102
}
330
1A
100
AcDbXrecord
280
     1
270
     1
271
     1
  0
XRECORD
  5
14
102
{ACAD_REACTORS
330
12
102
}
330
12
100
AcDbXrecord
280
     1
270
     1
271
     1
  0
XRECORD
  5
13
102
{ACAD_REACTORS
330
12
102
}
330
12
100
AcDbXrecord
280
     1
270
     1
271
     1
  0
XRECORD
  5
17
102
{ACAD_REACTORS
330
12
102
}
330
12
100
AcDbXrecord
280
     1
270
     1
271
     1
  0
XRECORD
  5
16
102
{ACAD_REACTORS
330
12
102
}
330
12
100
AcDbXrecord
280
     1
270
     1
271
     1
  0
XRECORD
  5
18
102
{ACAD_REACTORS
330
12
102
}
330
12
100
AcDbXrecord
280
     1
270
     1
271
     1
  0
XRECORD
  5
15
102
{ACAD_REACTORS
330
12
102
}
330
12
100
AcDbXrecord
280
     1
270
     1
271
     1
  0
XRECORD
  5
24
102
{ACAD_REACTORS
330
22
102
}
330
22
100
AcDbXrecord
280
     1
270
     1
271
     1
  0
XRECORD
  5
23
102
{ACAD_REACTORS
330
22
102
}
330
22
100
AcDbXrecord
280
     1
270
     1
271
     1
  0
XRECORD
  5
27
102
{ACAD_REACTORS
330
22
102
}
330
22
100
AcDbXrecord
280
     1
270
     1
271
     1
  0
XRECORD
  5
26
102
{ACAD_REACTORS
330
22
102
}
330
22
100
AcDbXrecord
280
     1
270
     1
271
     1
  0
XRECORD
  5
28
102
{ACAD_REACTORS
330
22
102
}
330
22
100
AcDbXrecord
280
     1
270
     1
271
     1
  0
XRECORD
  5
25
102
{ACAD_REACTORS
330
22
102
}
330
22
100
AcDbXrecord
280
     1
270
     1
271
     1
  0
XRECORD
  5
185
102
{ACAD_REACTORS
330
184
102
}
330
184
100
AcDbXrecord
280
     1
102
DISPLAYNAME
  1
Imperial24
102
FLAGS
 90
        0
  0
CELLSTYLEMAP
  5
182
102
{ACAD_REACTORS
330
181
102
}
330
181
100
AcDbCellStyleMap
 90
        3
300
CELLSTYLE
  1
TABLEFORMAT_BEGIN
 90
        5
170
     1
 91
        0
 92
    32768
 62
   257
 93
        1
300
CONTENTFORMAT
  1
CONTENTFORMAT_BEGIN
 90
        0
 91
        0
 92
      512
 93
        0
300

 40
0.0
140
1.0
 94
        5
 62
     0
340
55
144
0.25
309
CONTENTFORMAT_END
171
     0
 94
        0
309
TABLEFORMAT_END
  1
CELLSTYLE_BEGIN
 90
        1
 91
        1
300
_TITLE
309
CELLSTYLE_END
300
CELLSTYLE
  1
TABLEFORMAT_BEGIN
 90
        5
170
     1
 91
        0
 92
        0
 62
   257
 93
        1
300
CONTENTFORMAT
  1
CONTENTFORMAT_BEGIN
 90
        0
 91
        0
 92
      512
 93
        0
300

 40
0.0
140
1.0
 94
        5
 62
     0
340
55
144
0.18
309
CONTENTFORMAT_END
171
     0
 94
        0
309
TABLEFORMAT_END
  1
CELLSTYLE_BEGIN
 90
        2
 91
        1
300
_HEADER
309
CELLSTYLE_END
300
CELLSTYLE
  1
TABLEFORMAT_BEGIN
 90
        5
170
     1
 91
        0
 92
        0
 62
   257
 93
        1
300
CONTENTFORMAT
  1
CONTENTFORMAT_BEGIN
 90
        0
 91
        0
 92
      512
 93
        0
300

 40
0.0
140
1.0
 94
        2
 62
     0
340
55
144
0.18
309
CONTENTFORMAT_END
171
     0
 94
        0
309
TABLEFORMAT_END
  1
CELLSTYLE_BEGIN
 90
        3
 91
        2
300
_DATA
309
CELLSTYLE_END
  0
ENDSEC
  0
EOF
